<svg width="52" height="52" viewBox="0 0 52 52" fill="none" xmlns="http://www.w3.org/2000/svg">
<path d="M41.874 12.5184C43.3346 14.7043 43.3346 17.7473 43.3346 23.8334C43.3346 29.9194 43.3346 32.9624 41.874 35.1483C41.2417 36.0946 40.4292 36.9071 39.4829 37.5394C37.5733 38.8154 35.0097 38.9767 30.3346 38.9971V39L27.9392 43.7908C27.1408 45.3878 24.8618 45.3878 24.0634 43.7908L21.668 39V38.9971C16.9929 38.9767 14.4293 38.8154 12.5197 37.5394C11.5734 36.9071 10.7609 36.0946 10.1286 35.1483C8.66797 32.9624 8.66797 29.9194 8.66797 23.8334C8.66797 17.7473 8.66797 14.7043 10.1286 12.5184C10.7609 11.5721 11.5734 10.7596 12.5197 10.1273C14.7056 8.66669 17.7486 8.66669 23.8346 8.66669H28.168C34.254 8.66669 37.297 8.66669 39.4829 10.1273C40.4292 10.7596 41.2417 11.5721 41.874 12.5184Z" stroke="#CED1D5" stroke-width="1.7" stroke-linecap="round" stroke-linejoin="round"/>
<path d="M19.5 19.5L32.5 19.5" stroke="#CED1D5" stroke-width="1.7" stroke-linecap="round" stroke-linejoin="round"/>
<path d="M19.5 28.1667H26" stroke="#CED1D5" stroke-width="1.7" stroke-linecap="round" stroke-linejoin="round"/>
</svg>
