<svg width="24" height="24" viewBox="0 0 24 24" fill="none" xmlns="http://www.w3.org/2000/svg">
<path d="M21 13V15.5567C21 18.1833 21 19.4966 20.1029 19.8983C19.2059 20.3 18.085 19.4886 15.8432 17.8659L15.1257 17.3465C13.8652 16.434 13.235 15.9778 12.5 15.9778C11.765 15.9778 11.1348 16.434 9.87426 17.3465L9.15681 17.8659C6.91502 19.4886 5.79412 20.3 4.89706 19.8983C4 19.4966 4 18.1833 4 15.5567V8.87329C4 6.1046 4 4.72025 4.9336 3.86012C5.86719 3 7.3698 3 10.375 3H11" stroke="#CED1D5" stroke-width="1.7"/>
<path d="M21 3V2H22V3H21ZM16.7071 8.70711C16.3166 9.09763 15.6834 9.09763 15.2929 8.70711C14.9024 8.31658 14.9024 7.68342 15.2929 7.29289L16.7071 8.70711ZM20 9.4V3H22V9.4H20ZM21 4H14.6V2H21V4ZM21.7071 3.70711L16.7071 8.70711L15.2929 7.29289L20.2929 2.29289L21.7071 3.70711Z" fill="#CED1D5"/>
</svg>
