<svg width="48" height="48" viewBox="0 0 48 48" fill="none" xmlns="http://www.w3.org/2000/svg">
<rect width="48" height="48" rx="24" fill="#7367F0" fill-opacity="0.12"/>
<path d="M32 25.4118V27.8181C32 30.2902 32 31.5263 31.1557 31.9043C30.3114 32.2824 29.2565 31.5187 27.1465 29.9914L26.4713 29.5026C25.2849 28.6438 24.6917 28.2144 24 28.2144C23.3083 28.2144 22.7151 28.6438 21.5287 29.5026L20.8535 29.9914C18.7435 31.5187 17.6886 32.2824 16.8443 31.9043C16 31.5263 16 30.2902 16 27.8181V21.5278C16 18.922 16 17.6191 16.8787 16.8095C17.7574 16 19.1716 16 22 16H22.5882" stroke="#7367F0" stroke-width="1.7"/>
<path d="M32 16V15H33V16H32ZM27.7071 21.7071C27.3166 22.0976 26.6834 22.0976 26.2929 21.7071C25.9024 21.3166 25.9024 20.6834 26.2929 20.2929L27.7071 21.7071ZM31 22.4V16H33V22.4H31ZM32 17H25.6V15H32V17ZM32.7071 16.7071L27.7071 21.7071L26.2929 20.2929L31.2929 15.2929L32.7071 16.7071Z" fill="#7367F0"/>
</svg>
