<svg width="217" height="71" viewBox="0 0 217 71" fill="none" xmlns="http://www.w3.org/2000/svg">
<mask id="mask0_4922_30871" style="mask-type:luminance" maskUnits="userSpaceOnUse" x="0" y="0" width="216" height="71">
<path d="M215.5 0H0V70.6975H215.5V0Z" fill="white"/>
</mask>
<g mask="url(#mask0_4922_30871)">
<path d="M51.4038 0C51.4038 0 72.6792 12.638 62.1898 36.3705C60.7079 39.723 57.5283 43.983 54.0215 47.5823C54.2376 47.8417 54.4537 48.101 54.6389 48.3664C58.1339 44.9161 61.0634 40.9366 63.3196 36.5743C66.3448 30.5362 67.3573 24.3561 66.1534 18.497C68.0488 25.1525 67.1104 32.2772 63.6283 39.2414C61.5955 43.2133 59.0141 46.8794 55.9602 50.1322C56.1701 50.4409 56.38 50.7496 56.5775 51.0644C59.9029 47.6226 62.7028 43.7095 64.8878 39.4513C68.1167 33.0057 69.2095 26.3935 67.913 20.127C69.9442 27.2455 68.9378 34.8641 65.215 42.3098C63.2072 46.2359 60.689 49.8793 57.7259 53.145C57.9111 53.5278 58.0902 53.9106 58.2507 54.3057C61.5465 50.7842 64.337 46.8218 66.5424 42.5321C69.9874 35.642 71.1543 28.5667 69.7713 21.8618C71.9445 29.4743 70.8703 37.63 66.8881 45.5882C64.7988 49.6769 62.1904 53.4786 59.1274 56.8988C59.257 57.3927 59.362 57.899 59.4484 58.4052C62.9757 54.6496 65.9558 50.416 68.3019 45.829C72.0063 38.4203 73.2411 30.8943 71.7593 23.7202C74.0869 31.8636 72.9324 40.5811 68.6724 49.095C66.2713 53.7808 63.2406 58.116 59.6645 61.9799C59.6342 62.7084 59.5558 63.4345 59.4299 64.1531C63.7499 59.7915 67.3765 54.7945 70.185 49.3357C74.1301 41.4455 75.4637 33.37 73.8893 25.6958C76.3589 34.4072 75.1241 43.7237 70.5863 52.8302C67.5549 58.8868 63.0479 64.8446 57.1949 70.4629L57.0282 70.611C57.363 70.6635 57.7019 70.6864 58.0408 70.679H58.1642C58.405 70.679 58.689 70.679 59.0039 70.6357C64.3611 65.5793 68.8335 59.661 72.2347 53.1265C76.4577 44.6868 77.8777 36.0433 76.186 27.8443C78.847 37.1546 77.4825 47.1008 72.6545 56.8617C70.3047 61.4733 67.4024 65.7818 64.0111 69.6911C64.0111 69.6911 65.8262 69.1293 66.7893 68.7589C69.7201 65.1761 72.2576 61.289 74.3585 57.1643C78.8778 48.1565 80.4028 38.8957 78.5877 30.1102C81.44 40.0687 80.0756 50.6261 74.8154 61.1217C73.9819 62.7949 71.9754 66.172 71.9754 66.172C71.9754 66.172 74.4079 64.5421 75.5625 63.5357C75.9514 62.8381 76.3218 62.1404 76.6676 61.4428C85.1999 44.4522 83.7738 26.696 70.3825 12.2923C60.9672 2.22261 53.7622 0.31487 51.4038 0Z" fill="white"/>
<path d="M28.9124 43.4519C23.7176 43.3807 18.5372 44.0184 13.5147 45.3473L12.5824 45.619C13.9011 43.9011 15.4368 42.3613 17.1511 41.0379C24.9303 34.9566 37.0558 29.3075 52.3424 26.3132C54.9478 25.8007 60.1339 25.0413 60.1339 25.0413L59.4548 24.5906C56.9852 24.924 54.5157 25.3356 52.0461 25.8254C36.5496 28.8506 24.0783 34.3701 16.2991 40.7848C10.4957 45.6005 8.64348 50.2803 8.1187 52.3732C8.78548 47.7984 11.8724 43.2173 16.9289 39.0005C25.0414 32.2092 38.2103 26.4552 54.5218 23.2571C55.2071 23.1212 55.8863 22.9978 56.5716 22.8805L55.7381 22.4421L54.2255 22.7199C37.6609 25.9674 24.2758 31.845 16.009 38.7289C11.323 42.6308 8.29156 46.8599 7.2667 51.1199C7.98287 46.224 11.3168 41.3652 16.6696 36.815C30.067 25.4797 52.4783 20.9295 52.4783 20.9295L51.4596 20.5158C36.105 24.1338 23.677 29.894 15.7188 36.531C10.6994 40.7045 7.45191 45.23 6.35913 49.7802C7.11852 44.5509 10.6809 39.3216 16.4288 34.4874C28.6963 24.2079 47.7799 19.2811 47.7799 19.2811C47.7799 19.2811 46.9341 19.0341 46.5081 18.923C33.3391 22.7693 22.6336 28.1345 15.3792 34.1787C10.0203 38.6425 6.55052 43.4828 5.38365 48.3787C6.17391 42.7543 10.0264 37.0928 16.1571 31.9993C25.8749 23.9177 42.3901 18.0401 42.3901 18.0401C42.3901 18.0401 41.3282 17.8672 40.791 17.7993C30.141 21.6086 21.3556 26.3996 15.0335 31.6659C9.30409 36.426 5.59356 41.6121 4.32174 46.8167C5.19843 40.8342 9.372 34.6788 15.8423 29.3322C24.3684 22.2754 36.2162 17.3919 36.2162 17.3919C36.2162 17.3919 34.8579 17.3486 34.1726 17.3486C26.3564 20.7813 19.7565 24.7326 14.663 28.9741C8.53235 34.0861 4.5687 39.6179 3.22896 45.1868C4.16122 38.7845 8.64348 32.2216 15.5768 26.4798C19.7915 23.0657 24.3425 20.089 29.1594 17.5956C29.1594 17.5956 27.974 17.7067 27.3566 17.7993L26.4676 17.9043C22.149 20.2453 18.0621 22.9906 14.2617 26.1032C7.71122 31.561 3.46357 37.4818 2.03122 43.4396C3.03139 36.5927 7.53835 29.857 15.2125 23.4299C16.9659 21.9667 20.9357 19.1391 20.9357 19.1391C20.9357 19.1391 18.3797 19.9108 17.0956 20.4788C15.9596 21.3185 14.8977 22.1952 13.8419 23.0163C4.686 30.1965 0.0493913 38.8956 0 46.7982V47.0328C0.0493913 55.2626 5.06878 62.659 15.157 66.6782C20.2128 60.8467 26.7932 56.5388 34.1603 54.2378C41.5559 52.0266 49.5252 52.8231 56.337 56.4542C56.337 56.4542 54.5095 43.7112 28.9124 43.4519ZM9.98939 50.4038C12.3652 49.332 14.8168 48.4364 17.324 47.7243C24.9975 45.4813 33.1185 45.2474 40.9083 47.0452C34.0731 45.8074 27.0438 46.173 20.3739 48.1132C16.5807 49.2095 12.9184 50.7167 9.45226 52.6078C9.56771 51.8611 9.74744 51.1257 9.98939 50.4099V50.4038ZM13.7987 46.3598C22.0067 43.9611 30.6935 43.7124 39.0253 45.6375C31.7133 44.3134 24.1938 44.7044 17.0585 46.7797C14.822 47.4127 12.6297 48.1923 10.4957 49.1134C10.7426 48.5578 11.323 47.5329 11.607 47.0452C12.3478 46.8044 13.064 46.5698 13.7987 46.3598ZM9.32261 53.7685C12.8961 51.7571 16.6864 50.158 20.6209 49.0023C27.7953 46.9093 35.3876 46.6966 42.6679 48.3849C36.2738 47.2324 29.6995 47.5769 23.4609 49.3912C18.4494 50.8233 13.6948 53.0361 9.372 55.9479C9.29112 55.2285 9.27458 54.5032 9.32261 53.7809V53.7685ZM9.514 56.8555C13.8508 53.8625 18.6473 51.5977 23.714 50.1506C30.4189 48.1805 37.5179 47.9678 44.3287 49.5332C38.3526 48.4506 32.2068 48.7698 26.375 50.4655C20.4297 52.1973 14.886 55.0887 10.0635 58.9732C9.82807 58.2987 9.64439 57.6072 9.514 56.9049V56.8555ZM10.366 59.7202C15.157 55.8616 20.6714 53.0004 26.5849 51.3052C32.8584 49.4724 39.4974 49.2811 45.866 50.7495C40.2757 49.7409 34.5278 50.041 29.073 51.6262C22.4495 53.5513 16.3644 56.9902 11.2983 61.6712C10.9467 61.0581 10.6353 60.4229 10.366 59.7696V59.7202ZM11.6934 62.3565C16.6904 57.6869 22.7159 54.2586 29.2829 52.3485C35.1482 50.6337 41.3555 50.453 47.3107 51.8238C42.0842 50.8797 36.71 51.1607 31.6104 52.6449C24.4707 54.7355 18.0148 58.6858 12.9035 64.0913C12.459 63.5067 12.068 62.9288 11.7304 62.3565H11.6934ZM33.9565 53.6018C26.4376 55.8203 19.7464 60.2209 14.731 66.246C14.237 65.7151 13.774 65.1841 13.3542 64.6655C18.3884 59.3122 24.7615 55.4009 31.8142 53.3364C37.2999 51.7333 43.105 51.5632 48.6751 52.8425C43.7761 51.9555 38.7382 52.2154 33.9565 53.6018Z" fill="white"/>
<path d="M118.064 55.151H113.847L109.581 45.1184H96.7948L92.5348 55.151H88.3242L103.142 21.0957L118.064 55.151ZM97.9432 41.766H108.396L103.166 29.7145L97.9432 41.766Z" fill="white"/>
<path d="M121.453 22.3867H138.728V25.9552H125.349V35.3519H138.728V38.9698H125.349V51.5338H138.728V55.1517H121.453V22.3867Z" fill="white"/>
<path d="M150.415 32.8824L146.291 55.1517H142.488L149.137 21.1025L160.59 48.1813L172.049 21.1025L178.698 55.1517H174.888L170.715 32.8824L160.59 56.4358L150.415 32.8824Z" fill="white"/>
<path d="M209.53 50.9841C206.212 54.2138 201.764 56.0211 197.133 56.0211C192.502 56.0211 188.054 54.2138 184.736 50.9841C183.112 49.4006 181.822 47.5082 180.941 45.4183C180.059 43.3284 179.605 41.0833 179.605 38.8153C179.605 36.5473 180.059 34.3022 180.941 32.2122C181.822 30.1224 183.112 28.2299 184.736 26.6465C188.07 23.4468 192.512 21.6602 197.133 21.6602C201.754 21.6602 206.197 23.4468 209.53 26.6465C211.144 28.236 212.425 30.1303 213.299 32.2194C214.173 34.3085 214.624 36.5506 214.624 38.8153C214.624 41.08 214.173 43.3221 213.299 45.4111C212.425 47.5002 211.144 49.3946 209.53 50.9841ZM206.598 48.3663C207.859 47.1222 208.857 45.6372 209.532 43.9996C210.208 42.362 210.547 40.6052 210.531 38.8338C210.547 37.0486 210.206 35.2782 209.528 33.6264C208.851 31.9747 207.85 30.4748 206.585 29.2149C205.342 27.9647 203.864 26.9727 202.236 26.2957C200.608 25.6187 198.863 25.2703 197.099 25.2703C195.336 25.2703 193.591 25.6187 191.963 26.2957C190.334 26.9727 188.856 27.9647 187.613 29.2149C186.354 30.4789 185.358 31.9796 184.682 33.6305C184.006 35.2814 183.663 37.0499 183.674 38.8338C183.663 40.6049 184.006 42.3604 184.682 43.9973C185.358 45.6342 186.355 47.1196 187.613 48.3663C188.848 49.6307 190.324 50.6354 191.953 51.3214C193.582 52.0073 195.332 52.3607 197.099 52.3607C198.867 52.3607 200.617 52.0073 202.246 51.3214C203.874 50.6354 205.35 49.6307 206.585 48.3663" fill="white"/>
<path d="M91.3061 67.4872H90.6887L90.0713 66.0178H88.2192L87.6018 67.4872H86.9844L89.1576 62.5049L91.3061 67.4872ZM88.3673 65.5301H89.8923L89.1267 63.7644L88.3673 65.5301Z" fill="white"/>
<path d="M92.331 62.6963V65.6783C92.331 66.6352 92.7138 67.0859 93.609 67.0859C94.5042 67.0859 94.887 66.6352 94.887 65.6783V62.6963H95.4612V65.6783C95.4612 66.9686 94.8438 67.6169 93.609 67.6169C92.3742 67.6169 91.7568 66.9995 91.7568 65.6783V62.6963H92.331Z" fill="white"/>
<path d="M99.4002 66.1412C99.3873 66.5073 99.244 66.8561 98.9959 67.1253C98.7477 67.3945 98.4118 67.5661 98.0482 67.6087C97.6845 67.6513 97.3178 67.5618 97.014 67.3574C96.7103 67.1524 96.4905 66.8462 96.3936 66.4931L96.9122 66.2399C97.048 66.8265 97.3814 67.1228 97.8629 67.1228C97.9858 67.1339 98.1093 67.1191 98.226 67.0796C98.3427 67.0401 98.4495 66.9759 98.5402 66.8919C98.6304 66.8079 98.702 66.7061 98.7501 66.5925C98.7983 66.4795 98.8224 66.3572 98.8199 66.2338C98.8143 66.0152 98.7396 65.8047 98.6063 65.6312C98.4729 65.4583 98.2883 65.3318 98.079 65.2706L97.4616 65.0237C97.1931 64.9453 96.9572 64.7829 96.7875 64.5606C96.6177 64.339 96.5226 64.0686 96.517 63.7889C96.5238 63.6216 96.5646 63.4574 96.6368 63.3067C96.709 63.1555 96.8109 63.0209 96.9369 62.9104C97.0628 62.8005 97.2097 62.7165 97.369 62.6652C97.5283 62.6134 97.6962 62.5942 97.8629 62.6097C98.1173 62.5942 98.3704 62.6541 98.5902 62.7832C98.81 62.9116 98.9866 63.103 99.0977 63.332L98.6285 63.6345C98.5587 63.4771 98.4458 63.3425 98.3025 63.2462C98.1593 63.1499 97.992 63.0962 97.8197 63.0912C97.7253 63.0845 97.6302 63.0974 97.5407 63.1289C97.4511 63.161 97.3696 63.211 97.3005 63.2758C97.2314 63.3407 97.1764 63.4191 97.1394 63.5067C97.1023 63.5938 97.0838 63.6876 97.085 63.7827C97.085 64.1223 97.2949 64.3692 97.7333 64.5545L98.4186 64.857C98.6952 64.9477 98.936 65.1237 99.1057 65.3602C99.2755 65.5966 99.3657 65.8806 99.3632 66.172" fill="white"/>
<path d="M101.067 63.2334H99.7148V62.6963H102.993V63.2334H101.641V67.4872H101.067V63.2334Z" fill="white"/>
<path d="M103.722 62.6963H104.845C105.229 62.6469 105.617 62.7321 105.944 62.9371C106.096 63.068 106.215 63.2316 106.293 63.4156C106.371 63.5995 106.406 63.7996 106.395 63.999C106.395 64.7831 105.944 65.2338 105.105 65.2338H105L106.852 67.5181H106.13L104.376 65.2338H104.296V67.5181H103.722V62.6963ZM104.277 64.7769H104.716C105.463 64.7769 105.833 64.672 105.833 64.0113C105.833 63.3507 105.469 63.1779 104.716 63.1779H104.277V64.7769Z" fill="white"/>
<path d="M111.13 67.4872H110.513L109.896 66.0178H108.043L107.426 67.4872H106.809L108.976 62.5049L111.13 67.4872ZM108.185 65.5301H109.71L108.945 63.7644L108.185 65.5301Z" fill="white"/>
<path d="M111.686 62.6963H112.254V66.9439H114.063V67.4872H111.686V62.6963Z" fill="white"/>
<path d="M115.409 62.6963H114.841V67.4934H115.409V62.6963Z" fill="white"/>
<path d="M120.391 67.4872H119.774L119.156 66.0178H117.304L116.687 67.4872H116.069L118.236 62.5049L120.391 67.4872ZM117.446 65.5301H118.977L118.206 63.7644L117.446 65.5301Z" fill="white"/>
<path d="M120.947 62.5049L124.454 66.3327V62.6963H124.997V67.6724L121.49 63.8878V67.4872H120.947V62.5049Z" fill="white"/>
<path d="M128.306 62.6963H130.831V63.2149H128.874V64.5917H130.831V65.1226H128.874V66.9563H130.831V67.4872H128.306V62.6963Z" fill="white"/>
<path d="M131.894 62.5049L135.4 66.3327V62.6963H135.944V67.6724L132.437 63.8878V67.4872H131.894V62.5049Z" fill="white"/>
<path d="M137.178 62.6963H139.71V63.2149H137.752V64.5917H139.71V65.1226H137.752V66.9563H139.71V67.4872H137.178V62.6963Z" fill="white"/>
<path d="M140.765 62.6957H141.895C142.278 62.6476 142.666 62.7328 142.994 62.9365C143.144 63.068 143.262 63.2323 143.341 63.4162C143.419 63.5996 143.454 63.799 143.445 63.9984C143.445 64.7825 142.994 65.2332 142.148 65.2332H142.049L143.901 67.5176H143.179L141.426 65.2332H141.345V67.5176H140.765V62.6957ZM141.321 64.7764H141.759C142.512 64.7764 142.877 64.6714 142.877 64.0108C142.877 63.3502 142.512 63.1773 141.759 63.1773H141.321V64.7764Z" fill="white"/>
<path d="M149.057 65.017V65.1714C149.091 65.4974 149.053 65.8264 148.947 66.1364C148.84 66.4457 148.667 66.7284 148.439 66.9637C148.211 67.1995 147.935 67.3823 147.628 67.4989C147.322 67.6156 146.994 67.6644 146.668 67.6409C146.239 67.6521 145.814 67.5545 145.433 67.3569C145.044 67.1421 144.723 66.8235 144.504 66.4364C144.286 66.0493 144.18 65.6091 144.198 65.1652C144.183 64.8071 144.244 64.449 144.377 64.1163C144.51 63.7829 144.712 63.4822 144.97 63.2328C145.435 62.8117 146.047 62.5901 146.674 62.6154C147.072 62.5888 147.47 62.6679 147.828 62.8444C148.185 63.0216 148.49 63.2896 148.711 63.6217L148.236 64.0045C148.085 63.7298 147.861 63.5032 147.588 63.3488C147.315 63.1951 147.005 63.121 146.692 63.134C146.432 63.1328 146.176 63.1858 145.938 63.2902C145.7 63.3951 145.487 63.5483 145.313 63.7403C145.138 63.9323 145.006 64.1589 144.924 64.4058C144.843 64.6521 144.814 64.9133 144.84 65.1714C144.826 65.4233 144.863 65.6752 144.95 65.9122C145.037 66.1493 145.171 66.366 145.344 66.5494C145.518 66.7328 145.727 66.8785 145.958 66.9779C146.19 67.0779 146.44 67.1291 146.692 67.1285C146.909 67.139 147.126 67.1069 147.331 67.0334C147.535 66.9606 147.723 66.847 147.884 66.7007C148.044 66.5543 148.175 66.3778 148.267 66.1808C148.359 65.9845 148.411 65.7715 148.421 65.5542H147.057V65.0479L149.057 65.017Z" fill="white"/>
<path d="M150.921 65.2955L149.297 62.6963H149.958L151.211 64.7707L152.458 62.6963H153.119L151.495 65.2955V67.4872H150.921V65.2955Z" fill="white"/>
<path d="M156.614 64.2274L156.009 67.4872H155.453L156.429 62.5049L158.102 66.4685L159.781 62.5049L160.75 67.4872H160.195L159.583 64.2274L158.102 67.6724L156.614 64.2274Z" fill="white"/>
<path d="M165.276 67.4872H164.658L164.041 66.0178H162.189L161.571 67.4872H160.954L163.127 62.5049L165.276 67.4872ZM162.331 65.5301H163.862L163.096 63.7644L162.331 65.5301Z" fill="white"/>
<path d="M165.862 62.696H166.992C167.375 62.6473 167.763 62.7325 168.091 62.9368C168.241 63.0683 168.36 63.2325 168.438 63.4165C168.516 63.5999 168.551 63.7993 168.542 63.9987C168.542 64.7828 168.091 65.2335 167.245 65.2335H167.146L168.999 67.5178H168.276L166.523 65.2335H166.443V67.5178H165.887L165.862 62.696ZM166.418 64.7766H166.856C167.603 64.7766 167.974 64.6717 167.974 64.0111C167.974 63.3505 167.616 63.1776 166.856 63.1776H166.418V64.7766Z" fill="white"/>
<path d="M169.542 62.6963H170.104V64.8263L172.117 62.6963H172.802L170.746 64.851L172.999 67.4872H172.265L170.104 64.9065V67.4872H169.542V62.6963Z" fill="white"/>
<path d="M173.598 62.6963H176.123V63.2149H174.166V64.5917H176.123V65.1226H174.166V66.9563H176.123V67.4872H173.598V62.6963Z" fill="white"/>
<path d="M178.025 63.2334H176.667V62.6963H179.945V63.2334H178.599V67.4872H178.025V63.2334Z" fill="white"/>
<path d="M186.903 66.8758C186.418 67.35 185.766 67.6155 185.088 67.6167C184.411 67.6179 183.76 67.3518 183.279 66.8758C183.039 66.6455 182.848 66.3689 182.718 66.0627C182.587 65.7565 182.52 65.4274 182.52 65.0947C182.52 64.7619 182.587 64.4328 182.718 64.1266C182.848 63.8204 183.039 63.5438 183.279 63.3135C183.767 62.8461 184.415 62.585 185.091 62.585C185.766 62.585 186.416 62.8461 186.903 63.3135C187.143 63.5438 187.334 63.8204 187.464 64.1266C187.595 64.4328 187.662 64.7619 187.662 65.0947C187.662 65.4274 187.595 65.7565 187.464 66.0627C187.334 66.3689 187.143 66.6455 186.903 66.8758ZM186.477 66.493C186.662 66.3115 186.808 66.0942 186.907 65.854C187.005 65.6145 187.055 65.357 187.051 65.0977C187.054 64.8366 187.005 64.5779 186.907 64.3359C186.808 64.0939 186.661 63.8747 186.477 63.6901C186.108 63.3227 185.608 63.1165 185.088 63.1165C184.567 63.1165 184.068 63.3227 183.699 63.6901C183.515 63.8747 183.369 64.0945 183.27 64.3365C183.172 64.5779 183.122 64.8366 183.124 65.0977C183.125 65.483 183.239 65.8596 183.452 66.1806C183.666 66.5011 183.97 66.7517 184.325 66.9011C184.68 67.0499 185.072 67.0907 185.45 67.0178C185.829 66.9456 186.177 66.7628 186.452 66.493" fill="white"/>
<path d="M189.23 67.4868H188.675V62.6958H189.681C190.098 62.6477 190.519 62.7317 190.885 62.9366C191.039 63.0712 191.162 63.2367 191.246 63.4225C191.33 63.6084 191.373 63.8102 191.373 64.014C191.373 64.2177 191.33 64.4196 191.246 64.6054C191.162 64.7913 191.039 64.9567 190.885 65.0913C190.52 65.2988 190.099 65.3852 189.681 65.3383H189.23V67.4868ZM189.539 64.8258C190.366 64.8258 190.774 64.7147 190.774 64.0541C190.774 63.3935 190.366 63.2206 189.539 63.2206H189.255V64.8258H189.539Z" fill="white"/>
<path d="M192.169 62.6963H194.701V63.2149H192.737V64.5917H194.701V65.1226H192.737V66.9563H194.701V67.4872H192.169V62.6963Z" fill="white"/>
<path d="M195.756 62.6958H196.88C197.265 62.6476 197.655 62.7322 197.985 62.9366C198.135 63.0681 198.254 63.2323 198.331 63.4163C198.41 63.5997 198.445 63.7991 198.436 63.9985C198.436 64.7826 197.985 65.2333 197.139 65.2333H197.041L198.893 67.5176H198.17L196.417 65.2333H196.331V67.5176H195.775L195.756 62.6958ZM196.312 64.7764H196.75C197.497 64.7764 197.868 64.6714 197.868 64.0108C197.868 63.3502 197.504 63.1774 196.75 63.1774H196.331L196.312 64.7764Z" fill="white"/>
<path d="M203.122 67.4872H202.504L201.887 66.0178H200.035L199.417 67.4872H198.8L200.967 62.5049L203.122 67.4872ZM200.177 65.5301H201.702L200.936 63.7644L200.177 65.5301Z" fill="white"/>
<path d="M204.184 63.2334H202.832V62.6963H206.11V63.2334H204.764V67.4872H204.184V63.2334Z" fill="white"/>
<path d="M210.623 66.8755C210.136 67.3484 209.486 67.6139 208.808 67.6163C208.129 67.617 207.477 67.3509 206.993 66.8755C206.752 66.6452 206.562 66.3686 206.431 66.0624C206.301 65.7561 206.234 65.4271 206.234 65.0943C206.234 64.7615 206.301 64.4324 206.431 64.1262C206.562 63.82 206.752 63.5434 206.993 63.3131C207.481 62.8451 208.131 62.584 208.808 62.584C209.484 62.584 210.135 62.8451 210.623 63.3131C210.858 63.5465 211.043 63.8243 211.171 64.1299C211.298 64.4355 211.363 64.7634 211.363 65.0943C211.363 65.4252 211.298 65.7531 211.171 66.0587C211.043 66.3643 210.858 66.6421 210.623 66.8755ZM210.191 66.4927C210.375 66.3112 210.522 66.0939 210.62 65.8537C210.719 65.6141 210.768 65.3567 210.765 65.0974C210.768 64.8362 210.719 64.5775 210.62 64.3355C210.522 64.0935 210.375 63.8743 210.191 63.6897C210.009 63.5076 209.793 63.3625 209.555 63.2637C209.317 63.1649 209.062 63.1143 208.805 63.1143C208.547 63.1143 208.292 63.1649 208.054 63.2637C207.816 63.3625 207.6 63.5076 207.419 63.6897C207.233 63.8743 207.087 64.0935 206.987 64.3355C206.888 64.5769 206.837 64.8362 206.838 65.0974C206.837 65.3567 206.888 65.6141 206.987 65.8537C207.087 66.0932 207.233 66.3106 207.419 66.4927C207.599 66.6779 207.814 66.8255 208.052 66.9261C208.29 67.0267 208.546 67.0786 208.805 67.0786C209.063 67.0786 209.319 67.0267 209.557 66.9261C209.795 66.8255 210.01 66.6779 210.191 66.4927Z" fill="white"/>
<path d="M212.383 62.6958H213.506C213.892 62.6476 214.281 62.7322 214.612 62.9366C214.762 63.0681 214.88 63.2323 214.959 63.4163C215.036 63.5997 215.072 63.7991 215.062 63.9985C215.062 64.7826 214.612 65.2333 213.766 65.2333H213.661L215.513 67.5176H214.791L213.037 65.2333H212.957V67.5176H212.383V62.6958ZM212.938 64.7764H213.377C214.124 64.7764 214.494 64.6714 214.494 64.0108C214.494 63.3502 214.136 63.1774 213.377 63.1774H212.938V64.7764Z" fill="white"/>
</g>
</svg>
