<?xml version="1.0" encoding="utf-8"?>
<!-- Generator: Adobe Illustrator 26.5.0, SVG Export Plug-In . SVG Version: 6.00 Build 0)  -->
<svg version="1.1" id="Layer_1" xmlns="http://www.w3.org/2000/svg" xmlns:xlink="http://www.w3.org/1999/xlink" x="0px" y="0px"
	 viewBox="0 0 139 38" style="enable-background:new 0 0 139 38;" xml:space="preserve">
<style type="text/css">
	.st0{fill:#A566FF;}
	.st1{fill:#FFFFFF;}
</style>
<path class="st0" d="M46.4,14h-1.7c-0.4,0-0.7-0.1-0.9-0.3s-0.3-0.5-0.3-0.9v-1.6c0-0.4,0.1-0.7,0.3-0.9s0.5-0.3,0.9-0.3h0.7
	c0.4,0,0.7,0.1,0.9,0.3s0.3,0.5,0.3,0.9v1c0,0.1,0,0.1-0.1,0.1h-2.1c-0.1,0-0.1,0-0.1,0.1v0.3c0,0.4,0.2,0.6,0.6,0.6h1.6
	c0.1,0,0.1,0,0.1,0.1v0.4C46.5,14,46.5,14,46.4,14z M44.3,11.8h1.4c0.1,0,0.1,0,0.1-0.1v-0.5c0-0.2,0-0.3-0.1-0.4
	c-0.1-0.1-0.2-0.1-0.4-0.1h-0.4c-0.2,0-0.3,0-0.4,0.1c-0.1,0.1-0.1,0.2-0.1,0.4L44.3,11.8C44.2,11.7,44.2,11.8,44.3,11.8z"/>
<path class="st0" d="M48.1,14h-0.5c-0.1,0-0.1,0-0.1-0.1v-3.8c0-0.1,0-0.1,0.1-0.1h0.5c0.1,0,0.1,0,0.1,0.1v0.3l0,0
	c0.1-0.3,0.4-0.4,0.8-0.4h0.4c0.4,0,0.7,0.1,0.9,0.3s0.3,0.5,0.3,0.9v2.7c0,0.1,0,0.1-0.1,0.1H50c-0.1,0-0.1,0-0.1-0.1v-2.7
	c0-0.4-0.2-0.6-0.6-0.6h-0.4c-0.4,0-0.7,0.2-0.7,0.7v2.6C48.2,14,48.2,14,48.1,14z"/>
<path class="st0" d="M54.5,14h-1.7c-0.4,0-0.7-0.1-0.9-0.3s-0.3-0.5-0.3-0.9v-1.6c0-0.4,0.1-0.7,0.3-0.9s0.5-0.3,0.9-0.3h0.7
	c0.4,0,0.7,0.1,0.9,0.3s0.3,0.5,0.3,0.9v1c0,0.1,0,0.1-0.1,0.1h-2.1c-0.1,0-0.1,0-0.1,0.1v0.3c0,0.4,0.2,0.6,0.6,0.6h1.6
	c0.1,0,0.1,0,0.1,0.1v0.4C54.6,14,54.6,14,54.5,14z M52.4,11.8h1.4c0.1,0,0.1,0,0.1-0.1v-0.5c0-0.2,0-0.3-0.1-0.4
	c-0.1-0.1-0.2-0.1-0.4-0.1H53c-0.2,0-0.3,0-0.4,0.1c-0.1,0.1-0.1,0.2-0.1,0.4L52.4,11.8C52.3,11.7,52.3,11.8,52.4,11.8z"/>
<path class="st0" d="M56.2,14h-0.5c-0.1,0-0.1,0-0.1-0.1v-3.8c0-0.1,0-0.1,0.1-0.1h0.5c0.1,0,0.1,0,0.1,0.1v0.3l0,0
	c0.1-0.1,0.2-0.2,0.3-0.3c0.2-0.1,0.3-0.1,0.5-0.1h0.3c0.1,0,0.1,0,0.1,0.1v0.4c0,0.1,0,0.1-0.1,0.1H57c-0.4,0-0.7,0.2-0.7,0.7v2.5
	C56.3,14,56.3,14,56.2,14z"/>
<path class="st0" d="M59.7,13.8h-0.4c-0.4,0-0.7-0.1-0.9-0.3s-0.3-0.5-0.3-0.9v-1.4c0-0.4,0.1-0.7,0.3-0.9s0.5-0.3,0.9-0.3h1.8
	c0.1,0,0.1,0,0.1,0.1v4c0,0.4-0.1,0.7-0.3,0.9s-0.5,0.3-0.9,0.3h-1.5c-0.1,0-0.1,0-0.1-0.1v-0.4c0-0.1,0-0.1,0.1-0.1H60
	c0.4,0,0.6-0.2,0.6-0.6v-0.6l0,0C60.4,13.7,60.1,13.8,59.7,13.8z M60.5,12.4v-1.8c0-0.1,0-0.1-0.1-0.1h-1c-0.4,0-0.6,0.2-0.6,0.6
	v1.3c0,0.4,0.2,0.6,0.6,0.6h0.4C60.3,13.1,60.5,12.9,60.5,12.4z"/>
<path class="st0" d="M62.8,15.3h-0.4c-0.1,0-0.1,0-0.1-0.1v-0.4c0-0.1,0-0.1,0.1-0.1h0.2c0.3,0,0.5-0.1,0.7-0.2
	c0.1-0.1,0.2-0.3,0.3-0.6h-0.3c-0.1,0-0.1,0-0.2-0.1L62,10.1c0-0.1,0-0.1,0.1-0.1h0.5c0.1,0,0.1,0,0.2,0.1l0.9,3.1l0,0l0.9-3.1
	c0-0.1,0.1-0.1,0.2-0.1h0.5c0.1,0,0.1,0,0.1,0.1l-1.1,3.8c-0.1,0.4-0.3,0.8-0.5,1C63.5,15.2,63.2,15.3,62.8,15.3z"/>
<path class="st0" d="M69.4,14h-0.7c-0.1,0-0.1,0-0.2-0.1l-0.9-3.8c0-0.1,0-0.1,0.1-0.1h0.6c0.1,0,0.1,0,0.2,0.1l0.6,3h0.1l0.7-3
	c0-0.1,0.1-0.1,0.2-0.1h0.5c0.1,0,0.1,0,0.2,0.1l0.7,3h0.1l0.6-3c0-0.1,0.1-0.1,0.2-0.1H73c0.1,0,0.1,0,0.1,0.1l-0.9,3.8
	c0,0.1-0.1,0.1-0.2,0.1h-1c-0.1,0-0.1,0-0.2-0.1l-0.6-3h-0.1l-0.6,3C69.5,14,69.5,14,69.4,14z"/>
<path class="st0" d="M76.4,14h-1.7c-0.4,0-0.7-0.1-0.9-0.3c-0.2-0.2-0.3-0.5-0.3-0.9v-1.6c0-0.4,0.1-0.7,0.3-0.9
	c0.2-0.2,0.5-0.3,0.9-0.3h0.7c0.4,0,0.7,0.1,0.9,0.3c0.2,0.2,0.3,0.5,0.3,0.9v1c0,0.1,0,0.1-0.1,0.1h-2.1c-0.1,0-0.1,0-0.1,0.1v0.3
	c0,0.4,0.2,0.6,0.6,0.6h1.6c0.1,0,0.1,0,0.1,0.1v0.4C76.5,14,76.5,14,76.4,14z M74.3,11.8h1.4c0.1,0,0.1,0,0.1-0.1v-0.5
	c0-0.2,0-0.3-0.1-0.4c-0.1-0.1-0.2-0.1-0.4-0.1h-0.4c-0.2,0-0.3,0-0.4,0.1s-0.1,0.2-0.1,0.4L74.3,11.8
	C74.2,11.7,74.2,11.8,74.3,11.8z"/>
<path class="st0" d="M78.3,13.3h1c0.4,0,0.6-0.2,0.6-0.6v-1.6c0-0.4-0.2-0.6-0.6-0.6h-0.4c-0.4,0-0.7,0.2-0.7,0.7L78.3,13.3
	C78.2,13.3,78.2,13.3,78.3,13.3z M77.4,13.9V8.5c0-0.1,0-0.1,0.1-0.1H78c0.1,0,0.1,0,0.1,0.1v1.8l0,0c0.1-0.3,0.4-0.4,0.8-0.4h0.4
	c0.4,0,0.7,0.1,0.9,0.3c0.2,0.2,0.3,0.5,0.3,0.9v1.6c0,0.4-0.1,0.7-0.3,0.9c-0.2,0.2-0.5,0.3-0.9,0.3L77.4,13.9
	C77.5,14,77.4,14,77.4,13.9z"/>
<path class="st1" d="M47.7,27h-1.6c-0.7,0-1.2-0.2-1.6-0.6c-0.4-0.4-0.6-0.9-0.6-1.6v-4.7c0-0.7,0.2-1.2,0.6-1.6
	c0.4-0.4,0.9-0.6,1.6-0.6h1.6c0.7,0,1.2,0.2,1.6,0.6c0.4,0.4,0.6,0.9,0.6,1.6v0.7c0,0.2-0.1,0.3-0.3,0.3h-0.9
	c-0.2,0-0.2-0.1-0.2-0.3v-0.6c0-0.7-0.3-1-1-1h-1.2c-0.7,0-1,0.3-1,1v4.5c0,0.7,0.3,1,1,1h1.2c0.7,0,1-0.3,1-1v-0.6
	c0-0.2,0.1-0.3,0.2-0.3h0.9c0.2,0,0.3,0.1,0.3,0.3v0.7c0,0.7-0.2,1.2-0.6,1.6S48.4,27,47.7,27z"/>
<path class="st1" d="M56.4,27h-4.5c-0.2,0-0.2-0.1-0.2-0.2v-8.5c0-0.2,0.1-0.2,0.2-0.2h0.9c0.2,0,0.2,0.1,0.2,0.2v7.4
	c0,0.1,0.1,0.1,0.2,0.1h3.2c0.2,0,0.2,0.1,0.2,0.3v0.7C56.6,26.9,56.5,27,56.4,27z"/>
<path class="st1" d="M59.3,18.2v8.5c0,0.2-0.1,0.2-0.2,0.2h-0.9C58,27,58,26.9,58,26.8v-8.5c0-0.2,0.1-0.2,0.2-0.2h0.9
	C59.2,18,59.3,18.1,59.3,18.2z"/>
<path class="st1" d="M66.1,27h-4.5c-0.2,0-0.2-0.1-0.2-0.2v-8.5c0-0.2,0.1-0.2,0.2-0.2h4.5c0.1,0,0.2,0.1,0.2,0.2V19
	c0,0.2-0.1,0.2-0.2,0.2H63c-0.1,0-0.2,0-0.2,0.1v2.4c0,0.1,0.1,0.1,0.2,0.1h2.7c0.2,0,0.3,0.1,0.3,0.2v0.7c0,0.2-0.1,0.2-0.3,0.2H63
	c-0.1,0-0.2,0-0.2,0.1v2.5c0,0.1,0.1,0.2,0.2,0.2h3.2c0.1,0,0.2,0.1,0.2,0.2v0.7C66.4,26.9,66.3,27,66.1,27z"/>
<path class="st1" d="M69.3,27h-0.9c-0.2,0-0.2-0.1-0.2-0.2v-8.5c0-0.2,0.1-0.2,0.2-0.2h0.8c0.1,0,0.3,0.1,0.3,0.2l3.4,6.1H73v-6
	c0-0.2,0.1-0.2,0.2-0.2H74c0.2,0,0.2,0.1,0.2,0.2v8.5c0,0.2-0.1,0.2-0.2,0.2h-0.8c-0.1,0-0.3-0.1-0.4-0.2l-3.4-6h-0.1v6
	C69.5,26.9,69.4,27,69.3,27z"/>
<path class="st1" d="M78.8,27h-0.9c-0.2,0-0.3-0.1-0.3-0.2v-7.4c0-0.1,0-0.1-0.1-0.1h-1.8c-0.2,0-0.3-0.1-0.3-0.2v-0.7
	c0-0.2,0.1-0.2,0.3-0.2h5.2c0.2,0,0.3,0.1,0.3,0.2V19c0,0.2-0.1,0.2-0.3,0.2h-1.8c-0.1,0-0.2,0-0.2,0.1v7.4C79,26.9,78.9,27,78.8,27
	z"/>
<path class="st1" d="M89.2,27h-1.5c-0.7,0-1.2-0.2-1.6-0.6s-0.6-0.9-0.6-1.6v-4.7c0-0.7,0.2-1.2,0.6-1.6s0.9-0.6,1.6-0.6h1.5
	c0.7,0,1.2,0.2,1.6,0.6s0.6,0.9,0.6,1.6v0.5c0,0.2-0.1,0.3-0.2,0.3h-0.9c-0.2,0-0.2-0.1-0.2-0.3v-0.4c0-0.7-0.3-1-1-1H88
	c-0.7,0-1,0.3-1,1v4.5c0,0.7,0.3,1,1,1h1.1c0.7,0,1-0.3,1-1v-1.3c0-0.1-0.1-0.1-0.2-0.1h-1.1c-0.2,0-0.2-0.1-0.2-0.2v-0.7
	c0-0.2,0.1-0.2,0.2-0.2h2.4c0.2,0,0.3,0.1,0.3,0.3v2.4c0,0.7-0.2,1.2-0.6,1.6C90.5,26.8,89.9,27,89.2,27z"/>
<path class="st1" d="M93.8,27h-1c-0.1,0-0.2-0.1-0.1-0.2l2.4-8.5c0-0.2,0.2-0.2,0.3-0.2h1.4c0.2,0,0.3,0.1,0.3,0.2l2.4,8.5
	c0,0.2,0,0.2-0.2,0.2h-1c-0.1,0-0.1,0-0.2,0c0,0-0.1-0.1-0.1-0.2L97.5,25h-3.1l-0.5,1.8C94,26.9,93.9,27,93.8,27z M96.1,19.3
	l-1.2,4.5h2.5L96.1,19.3L96.1,19.3z"/>
<path class="st1" d="M103.5,27h-0.9c-0.2,0-0.3-0.1-0.3-0.2v-7.4c0-0.1,0-0.1-0.1-0.1h-1.8c-0.2,0-0.3-0.1-0.3-0.2v-0.7
	c0-0.2,0.1-0.2,0.3-0.2h5.2c0.2,0,0.3,0.1,0.3,0.2V19c0,0.2-0.1,0.2-0.3,0.2h-1.8c-0.1,0-0.2,0-0.2,0.1v7.4
	C103.7,26.9,103.6,27,103.5,27z"/>
<path class="st1" d="M111.8,27h-4.5c-0.2,0-0.2-0.1-0.2-0.2v-8.5c0-0.2,0.1-0.2,0.2-0.2h4.5c0.1,0,0.2,0.1,0.2,0.2V19
	c0,0.2-0.1,0.2-0.2,0.2h-3.2c-0.1,0-0.2,0-0.2,0.1v2.4c0,0.1,0.1,0.1,0.2,0.1h2.7c0.2,0,0.3,0.1,0.3,0.2v0.7c0,0.2-0.1,0.2-0.3,0.2
	h-2.7c-0.1,0-0.2,0-0.2,0.1v2.5c0,0.1,0.1,0.2,0.2,0.2h3.2c0.1,0,0.2,0.1,0.2,0.2v0.7C112,26.9,111.9,27,111.8,27z"/>
<path class="st1" d="M116.5,27H115c-0.2,0-0.3-0.1-0.3-0.2l-1.7-8.5c0-0.2,0.1-0.2,0.2-0.2h1.1c0.2,0,0.3,0.1,0.3,0.2l1.1,7.3h0.1
	l1.7-7.4c0-0.1,0.1-0.2,0.3-0.2h1.2c0.2,0,0.2,0.1,0.3,0.2l1.7,7.4h0.1l1.1-7.3c0-0.2,0.1-0.3,0.3-0.3h1.1c0.2,0,0.3,0.1,0.2,0.3
	l-1.7,8.5c0,0.2-0.1,0.2-0.3,0.2h-1.5c-0.2,0-0.3-0.1-0.3-0.2l-1.6-7.1h-0.1l-1.6,7.1C116.7,26.9,116.7,27,116.5,27z"/>
<path class="st1" d="M125.5,27h-1c-0.1,0-0.2-0.1-0.1-0.2l2.4-8.5c0-0.2,0.2-0.2,0.3-0.2h1.4c0.2,0,0.3,0.1,0.3,0.2l2.4,8.5
	c0,0.2,0,0.2-0.2,0.2h-1c-0.1,0-0.1,0-0.2,0c0,0-0.1-0.1-0.1-0.2l-0.5-1.8h-3.1l-0.5,1.8C125.7,26.9,125.6,27,125.5,27z M127.8,19.3
	l-1.2,4.5h2.5L127.8,19.3L127.8,19.3z"/>
<path class="st1" d="M135.7,27h-0.9c-0.2,0-0.2-0.1-0.2-0.2v-3.1l-2.6-5.4c0-0.1,0-0.1,0-0.2c0,0,0.1-0.1,0.2-0.1h1.1
	c0.1,0,0.2,0.1,0.3,0.2l1.7,3.9h0.1l1.7-3.9c0.1-0.2,0.1-0.2,0.3-0.2h1.1c0.1,0,0.1,0,0.2,0.1c0,0,0,0.1,0,0.2l-2.6,5.4v3.1
	C135.9,26.9,135.8,27,135.7,27z"/>
<path class="st0" d="M5,0h28c2.8,0,5,2.2,5,5v28c0,2.8-2.2,5-5,5H5c-2.8,0-5-2.2-5-5V5C0,2.2,2.2,0,5,0z"/>
<path class="st1" d="M17.6,27.9c-1,0.7-2.3,1.1-3.6,1.1c-2.2,0-4.3-1.2-5.8-3.4c-1.4-2.1-2.2-4.5-2.2-7c0-0.1,0.1-0.2,0.2-0.2
	l1.5-0.7c0.1-0.1,0.2,0,0.3,0.1v0.1c0,2.5,0.7,4.8,1.9,6.5c1.1,1.6,2.6,2.5,4.2,2.5c0.8,0,1.7-0.2,2.3-0.7c0.1-0.1,0.2,0,0.3,0.1
	c0.3,0.4,0.6,0.8,1,1.1C17.7,27.6,17.7,27.8,17.6,27.9z M28.8,25.6C27.3,27.8,25.2,29,23,29s-4.3-1.2-5.8-3.4
	c-1.5-2.1-2.3-4.8-2.3-7.6c0-2.7,1.6-4.7,3.6-4.7s3.6,2.1,3.6,4.7c0,2.3-0.5,4.6-1.6,6.7c-0.1,0.1-0.2,0.2-0.3,0.1c0,0,0,0-0.1-0.1
	c-0.2-0.2-0.4-0.4-0.5-0.6c-0.2-0.3-0.3-0.5-0.5-0.8c0-0.1,0-0.2,0-0.2c0.7-1.6,1.1-3.3,1.1-5c0-1.3-0.7-2.8-1.6-2.8
	S17,16.8,17,18.1c0,2.5,0.7,4.8,1.9,6.5c1.1,1.6,2.6,2.5,4.2,2.5c1.5,0,3-0.9,4.2-2.5c1.2-1.7,1.9-4.1,1.9-6.5
	c0-2.5-0.7-4.8-1.9-6.5c-0.3-0.5-0.8-1-1.2-1.4c-0.1-0.1-0.1-0.2,0-0.3l0.1-0.1L27.4,9c0.1,0,0.2,0,0.2,0.1c0.4,0.4,0.7,0.8,1.1,1.2
	c1.5,2.1,2.3,4.8,2.3,7.6S30.2,23.6,28.8,25.6z"/>
</svg>
