<svg width="103" height="29" viewBox="0 0 103 29" fill="none" xmlns="http://www.w3.org/2000/svg">
<path d="M42.9362 19.0002H39.9122C39.2215 19.0002 38.6849 18.8089 38.3022 18.4262C37.9289 18.0435 37.7422 17.5115 37.7422 16.8302V14.0302C37.7422 13.3395 37.9289 12.8075 38.3022 12.4342C38.6849 12.0515 39.2215 11.8602 39.9122 11.8602H41.0602C41.7509 11.8602 42.2875 12.0515 42.6702 12.4342C43.0529 12.8075 43.2442 13.3395 43.2442 14.0302V15.8082C43.2442 15.9762 43.1602 16.0602 42.9922 16.0602H39.2402C39.1375 16.0602 39.0862 16.1069 39.0862 16.2002V16.8022C39.0862 17.4835 39.4269 17.8242 40.1082 17.8242H42.9362C43.1042 17.8242 43.1882 17.9082 43.1882 18.0762V18.7762C43.1882 18.9255 43.1042 19.0002 42.9362 19.0002ZM39.2402 15.1082H41.7462C41.8395 15.1082 41.8862 15.0615 41.8862 14.9682V14.0722C41.8862 13.7175 41.8069 13.4609 41.6482 13.3022C41.4895 13.1342 41.2329 13.0502 40.8782 13.0502H40.1082C39.7535 13.0502 39.4969 13.1342 39.3382 13.3022C39.1795 13.4609 39.1002 13.7175 39.1002 14.0722V14.9682C39.1002 15.0615 39.1469 15.1082 39.2402 15.1082Z" fill="white"/>
<path d="M45.9065 19.0002H45.0245C44.8658 19.0002 44.7865 18.9209 44.7865 18.7622V12.0982C44.7865 11.9395 44.8658 11.8602 45.0245 11.8602H45.9065C46.0652 11.8602 46.1445 11.9395 46.1445 12.0982V12.6022H46.2005C46.4245 12.1075 46.8958 11.8602 47.6145 11.8602H48.2305C48.9118 11.8602 49.4345 12.0469 49.7985 12.4202C50.1625 12.7935 50.3445 13.3302 50.3445 14.0302V18.7622C50.3445 18.9209 50.2605 19.0002 50.0925 19.0002H49.2105C49.0518 19.0002 48.9725 18.9209 48.9725 18.7622V14.0862C48.9725 13.3955 48.6318 13.0502 47.9505 13.0502H47.2925C46.5272 13.0502 46.1445 13.4469 46.1445 14.2402V18.7622C46.1445 18.9209 46.0652 19.0002 45.9065 19.0002Z" fill="white"/>
<path d="M57.0729 19.0002H54.0489C53.3582 19.0002 52.8216 18.8089 52.4389 18.4262C52.0656 18.0435 51.8789 17.5115 51.8789 16.8302V14.0302C51.8789 13.3395 52.0656 12.8075 52.4389 12.4342C52.8216 12.0515 53.3582 11.8602 54.0489 11.8602H55.1969C55.8876 11.8602 56.4242 12.0515 56.8069 12.4342C57.1896 12.8075 57.3809 13.3395 57.3809 14.0302V15.8082C57.3809 15.9762 57.2969 16.0602 57.1289 16.0602H53.3769C53.2742 16.0602 53.2229 16.1069 53.2229 16.2002V16.8022C53.2229 17.4835 53.5636 17.8242 54.2449 17.8242H57.0729C57.2409 17.8242 57.3249 17.9082 57.3249 18.0762V18.7762C57.3249 18.9255 57.2409 19.0002 57.0729 19.0002ZM53.3769 15.1082H55.8829C55.9762 15.1082 56.0229 15.0615 56.0229 14.9682V14.0722C56.0229 13.7175 55.9436 13.4609 55.7849 13.3022C55.6262 13.1342 55.3696 13.0502 55.0149 13.0502H54.2449C53.8902 13.0502 53.6336 13.1342 53.4749 13.3022C53.3162 13.4609 53.2369 13.7175 53.2369 14.0722V14.9682C53.2369 15.0615 53.2836 15.1082 53.3769 15.1082Z" fill="white"/>
<path d="M60.0432 19.0002H59.1612C59.0025 19.0002 58.9232 18.9209 58.9232 18.7622V12.0982C58.9232 11.9395 59.0025 11.8602 59.1612 11.8602H60.0432C60.2019 11.8602 60.2812 11.9395 60.2812 12.0982V12.6302H60.3372C60.4305 12.3969 60.6079 12.2102 60.8692 12.0702C61.1399 11.9302 61.4385 11.8602 61.7652 11.8602H62.2832C62.4419 11.8602 62.5212 11.9395 62.5212 12.0982V12.8262C62.5212 13.0035 62.4419 13.0782 62.2832 13.0502H61.4432C60.6685 13.0502 60.2812 13.4749 60.2812 14.3242V18.7622C60.2812 18.9209 60.2019 19.0002 60.0432 19.0002Z" fill="white"/>
<path d="M66.2167 18.6502H65.5867C64.9147 18.6502 64.3967 18.4635 64.0327 18.0902C63.678 17.7075 63.5007 17.1709 63.5007 16.4802V14.0302C63.5007 13.3395 63.692 12.8075 64.0747 12.4342C64.4573 12.0515 64.9893 11.8602 65.6707 11.8602H68.8067C68.9747 11.8602 69.0587 11.9395 69.0587 12.0982V19.0282C69.0587 19.7095 68.8627 20.2369 68.4707 20.6102C68.088 20.9929 67.556 21.1842 66.8747 21.1842H64.2427C64.084 21.1842 64.0047 21.1095 64.0047 20.9602V20.2322C64.0047 20.0735 64.084 19.9942 64.2427 19.9942H66.6647C67.346 19.9942 67.6867 19.6489 67.6867 18.9582V17.8942H67.6307C67.3973 18.3982 66.926 18.6502 66.2167 18.6502ZM67.6867 16.2702V13.1902C67.6867 13.0969 67.6353 13.0502 67.5327 13.0502H65.8667C65.204 13.0502 64.8727 13.3955 64.8727 14.0862V16.4102C64.8727 17.1009 65.204 17.4462 65.8667 17.4462H66.5387C67.304 17.4462 67.6867 17.0542 67.6867 16.2702Z" fill="white"/>
<path d="M71.6441 21.2682H70.9021C70.7434 21.2682 70.6641 21.1889 70.6641 21.0302V20.3162C70.6641 20.1482 70.7434 20.0642 70.9021 20.0642H71.2241C71.7934 20.0642 72.1854 19.9522 72.4001 19.7282C72.6241 19.5042 72.8107 19.1355 72.9601 18.6222H72.4001C72.2601 18.6222 72.1621 18.5429 72.1061 18.3842L70.2441 12.0982C70.2067 11.9395 70.2674 11.8602 70.4261 11.8602H71.3641C71.5134 11.8602 71.6067 11.9395 71.6441 12.0982L73.1701 17.5862H73.2261L74.7521 12.0982C74.7801 11.9395 74.8734 11.8602 75.0321 11.8602H75.9281C76.1054 11.8602 76.1801 11.9442 76.1521 12.1122L74.2341 18.8462C74.0194 19.6302 73.7161 20.2275 73.3241 20.6382C72.9321 21.0582 72.3721 21.2682 71.6441 21.2682Z" fill="white"/>
<path d="M83.1812 19.0002H81.9772C81.8372 19.0002 81.7438 18.9209 81.6972 18.7622L80.0872 12.0982C80.0498 11.9395 80.1058 11.8602 80.2552 11.8602H81.2632C81.4312 11.8602 81.5245 11.9395 81.5432 12.0982L82.5652 17.3902H82.6632L83.8952 12.0982C83.9232 11.9395 84.0118 11.8602 84.1612 11.8602H85.0852C85.2438 11.8602 85.3418 11.9395 85.3792 12.0982L86.5832 17.3902H86.6812L87.7032 12.0982C87.7312 11.9395 87.8245 11.8602 87.9832 11.8602H88.9912C89.1498 11.8602 89.2058 11.9395 89.1592 12.0982L87.5492 18.7622C87.5212 18.9209 87.4278 19.0002 87.2692 19.0002H86.0652C85.9158 19.0002 85.8225 18.9209 85.7852 18.7622L84.6652 13.5682H84.5672L83.4612 18.7622C83.4332 18.9209 83.3398 19.0002 83.1812 19.0002Z" fill="white"/>
<path d="M95.4088 19.0002H92.3848C91.6942 19.0002 91.1575 18.8089 90.7748 18.4262C90.4015 18.0435 90.2148 17.5115 90.2148 16.8302V14.0302C90.2148 13.3395 90.4015 12.8075 90.7748 12.4342C91.1575 12.0515 91.6942 11.8602 92.3848 11.8602H93.5328C94.2235 11.8602 94.7602 12.0515 95.1428 12.4342C95.5255 12.8075 95.7168 13.3395 95.7168 14.0302V15.8082C95.7168 15.9762 95.6328 16.0602 95.4648 16.0602H91.7128C91.6102 16.0602 91.5588 16.1069 91.5588 16.2002V16.8022C91.5588 17.4835 91.8995 17.8242 92.5808 17.8242H95.4088C95.5768 17.8242 95.6608 17.9082 95.6608 18.0762V18.7762C95.6608 18.9255 95.5768 19.0002 95.4088 19.0002ZM91.7128 15.1082H94.2188C94.3122 15.1082 94.3588 15.0615 94.3588 14.9682V14.0722C94.3588 13.7175 94.2795 13.4609 94.1208 13.3022C93.9622 13.1342 93.7055 13.0502 93.3508 13.0502H92.5808C92.2262 13.0502 91.9695 13.1342 91.8108 13.3022C91.6522 13.4609 91.5728 13.7175 91.5728 14.0722V14.9682C91.5728 15.0615 91.6195 15.1082 91.7128 15.1082Z" fill="white"/>
<path d="M98.7711 17.8102H100.507C101.179 17.8102 101.515 17.4649 101.515 16.7742V14.0302C101.515 13.3395 101.179 12.9942 100.507 12.9942H99.7651C98.9998 12.9942 98.6171 13.3862 98.6171 14.1702V17.6562C98.6171 17.7589 98.6685 17.8102 98.7711 17.8102ZM97.2591 18.7622V9.3962C97.2591 9.23754 97.3385 9.1582 97.4971 9.1582H98.3791C98.5378 9.1582 98.6171 9.23754 98.6171 9.3962V12.5602H98.6731C98.9065 12.0562 99.3778 11.8042 100.087 11.8042H100.703C101.394 11.8042 101.93 11.9955 102.313 12.3782C102.696 12.7515 102.887 13.2789 102.887 13.9602V16.8302C102.887 17.5115 102.696 18.0435 102.313 18.4262C101.93 18.8089 101.394 19.0002 100.703 19.0002H97.4971C97.3385 19.0002 97.2591 18.9209 97.2591 18.7622Z" fill="white"/>
<path d="M14.4884 0C6.48837 0 0 6.48837 0 14.4884C0 22.4884 6.48837 28.9767 14.4884 28.9767C22.4884 28.9767 28.9767 22.4884 28.9767 14.4884C29 6.48837 22.5116 0 14.4884 0ZM13.8372 21.6279C13.0465 22.186 12.093 22.5116 11.1395 22.5116C9.46512 22.5116 7.93023 21.6047 6.76744 19.9302C5.72093 18.3256 5.13954 16.4651 5.09302 14.5581C5.09302 14.4884 5.13954 14.4186 5.2093 14.3953L6.34884 13.8837C6.44186 13.8372 6.53488 13.8837 6.5814 13.9767C6.5814 14 6.60465 14.0233 6.60465 14.0465C6.60465 15.9535 7.11628 17.7442 8.02326 19.0698C8.88372 20.3256 10 21 11.1628 21C11.7907 21 12.4186 20.814 12.9302 20.4651C13 20.4186 13.1163 20.4419 13.1628 20.5116C13.3953 20.814 13.6279 21.093 13.8837 21.3721C13.907 21.4419 13.907 21.5581 13.8372 21.6279ZM22.2326 19.9302C21.093 21.5814 19.5349 22.5116 17.8605 22.5116C16.186 22.5116 14.6512 21.5814 13.4884 19.9302C12.3954 18.3488 11.7907 16.2558 11.7907 14.0465C11.7907 12 12.9767 10.3953 14.4651 10.3953C15.9535 10.3953 17.1395 12 17.1395 14.0465C17.1628 15.8372 16.7442 17.5814 15.907 19.1628C15.8605 19.2558 15.7442 19.2791 15.6744 19.2326C15.6512 19.2326 15.6512 19.2093 15.6279 19.186C15.4884 19.0233 15.3488 18.8605 15.2326 18.6977C15.093 18.4884 14.9767 18.3023 14.8605 18.0698C14.8372 18.0233 14.8372 17.9535 14.8605 17.907C15.3954 16.6744 15.6512 15.3488 15.6512 14.0233C15.6512 13.0233 15.1395 11.8837 14.4651 11.8837C13.7907 11.8837 13.2791 13.0233 13.2791 14.0233C13.2791 15.9302 13.7907 17.7209 14.6977 19.0465C15.5581 20.3023 16.6744 20.9767 17.8372 20.9767C19 20.9767 20.1163 20.2791 20.9767 19.0465C21.8837 17.7209 22.3954 15.9302 22.3954 14.0233C22.3954 12.1163 21.8837 10.3256 20.9767 9C20.7209 8.60465 20.3953 8.25581 20.0465 7.95349C19.9767 7.88372 19.9767 7.76744 20.0233 7.69767C20.0465 7.67442 20.0698 7.65116 20.093 7.65116L21.2326 7.13953C21.3023 7.11628 21.3721 7.11628 21.4186 7.18605C21.7209 7.48837 21.9767 7.81395 22.2093 8.13953C23.3023 9.72093 23.907 11.814 23.907 14.0233C23.907 16.2326 23.3256 18.3488 22.2326 19.9302Z" fill="white"/>
</svg>
