<svg width="53" height="55" viewBox="0 0 53 55" fill="none" xmlns="http://www.w3.org/2000/svg">
<path d="M26.4999 0.532959C11.8675 0.532959 0 12.6244 0 27.533C0 42.4413 11.8675 54.533 26.4999 54.533C41.1322 54.533 52.9999 42.4413 52.9999 27.533C53.0423 12.6244 41.1748 0.532959 26.4999 0.532959ZM25.3088 40.8378C23.8627 41.878 22.1186 42.4848 20.3747 42.4848C17.3121 42.4848 14.5048 40.7945 12.378 37.6741C10.4638 34.6837 9.40043 31.2168 9.31538 27.6629C9.31538 27.533 9.40044 27.4028 9.52806 27.3596L11.6123 26.406C11.7825 26.3194 11.9526 26.406 12.0377 26.5794C12.0377 26.6229 12.0802 26.6661 12.0802 26.7096C12.0802 30.2632 13.016 33.6003 14.6749 36.0707C16.2487 38.411 18.2905 39.6676 20.4173 39.6676C21.5657 39.6676 22.7142 39.3211 23.6501 38.6708C23.7776 38.5842 23.9902 38.6276 24.0753 38.7575C24.5007 39.3211 24.9261 39.841 25.3939 40.3611C25.4366 40.4912 25.4366 40.7078 25.3088 40.8378ZM40.6644 37.6741C38.58 40.7513 35.7302 42.4848 32.6677 42.4848C29.605 42.4848 26.7976 40.7513 24.6708 37.6741C22.6716 34.7272 21.5657 30.8266 21.5657 26.7096C21.5657 22.8956 23.735 19.9053 26.4573 19.9053C29.1796 19.9053 31.3491 22.8956 31.3491 26.7096C31.3915 30.0466 30.6258 33.297 29.0946 36.2439C29.0095 36.4172 28.7969 36.4607 28.6692 36.374C28.6267 36.374 28.6267 36.3306 28.5841 36.2873C28.3288 35.984 28.0738 35.6805 27.861 35.3772C27.6058 34.9873 27.3932 34.6405 27.1804 34.2071C27.1379 34.1204 27.1379 33.9903 27.1804 33.9036C28.1589 31.6067 28.6267 29.1365 28.6267 26.6661C28.6267 24.8025 27.6908 22.679 26.4573 22.679C25.2237 22.679 24.2881 24.8025 24.2881 26.6661C24.2881 30.22 25.2237 33.5571 26.8827 36.0273C28.4566 38.3675 30.4983 39.6244 32.6251 39.6244C34.7518 39.6244 36.7935 38.3243 38.3674 36.0273C40.0264 33.5571 40.962 30.22 40.962 26.6661C40.962 23.1124 40.0264 19.7753 38.3674 17.305C37.8996 16.5682 37.304 15.9182 36.666 15.3548C36.5383 15.2247 36.5383 15.0081 36.6234 14.878C36.666 14.8347 36.7085 14.7914 36.7511 14.7914L38.8353 13.8379C38.963 13.7946 39.0905 13.7946 39.1756 13.9246C39.7285 14.488 40.1965 15.0947 40.6219 15.7015C42.621 18.6485 43.727 22.5489 43.727 26.6661C43.727 30.7833 42.6636 34.7272 40.6644 37.6741Z" fill="#A566FF"/>
</svg>
