<svg width="29" height="29" viewBox="0 0 29 29" fill="none" xmlns="http://www.w3.org/2000/svg">
<path d="M14.4884 0C6.48837 0 0 6.48837 0 14.4884C0 22.4884 6.48837 28.9767 14.4884 28.9767C22.4884 28.9767 28.9767 22.4884 28.9767 14.4884C29 6.48837 22.5116 0 14.4884 0ZM13.8372 21.6279C13.0465 22.186 12.093 22.5116 11.1395 22.5116C9.46512 22.5116 7.93023 21.6047 6.76744 19.9302C5.72093 18.3256 5.13954 16.4651 5.09302 14.5581C5.09302 14.4884 5.13954 14.4186 5.2093 14.3953L6.34884 13.8837C6.44186 13.8372 6.53488 13.8837 6.5814 13.9767C6.5814 14 6.60465 14.0233 6.60465 14.0465C6.60465 15.9535 7.11628 17.7442 8.02326 19.0698C8.88372 20.3256 10 21 11.1628 21C11.7907 21 12.4186 20.814 12.9302 20.4651C13 20.4186 13.1163 20.4419 13.1628 20.5116C13.3953 20.814 13.6279 21.093 13.8837 21.3721C13.907 21.4419 13.907 21.5581 13.8372 21.6279ZM22.2326 19.9302C21.093 21.5814 19.5349 22.5116 17.8605 22.5116C16.186 22.5116 14.6512 21.5814 13.4884 19.9302C12.3954 18.3488 11.7907 16.2558 11.7907 14.0465C11.7907 12 12.9767 10.3953 14.4651 10.3953C15.9535 10.3953 17.1395 12 17.1395 14.0465C17.1628 15.8372 16.7442 17.5814 15.907 19.1628C15.8605 19.2558 15.7442 19.2791 15.6744 19.2326C15.6512 19.2326 15.6512 19.2093 15.6279 19.186C15.4884 19.0233 15.3488 18.8605 15.2326 18.6977C15.093 18.4884 14.9767 18.3023 14.8605 18.0698C14.8372 18.0233 14.8372 17.9535 14.8605 17.907C15.3954 16.6744 15.6512 15.3488 15.6512 14.0233C15.6512 13.0233 15.1395 11.8837 14.4651 11.8837C13.7907 11.8837 13.2791 13.0233 13.2791 14.0233C13.2791 15.9302 13.7907 17.7209 14.6977 19.0465C15.5581 20.3023 16.6744 20.9767 17.8372 20.9767C19 20.9767 20.1163 20.2791 20.9767 19.0465C21.8837 17.7209 22.3954 15.9302 22.3954 14.0233C22.3954 12.1163 21.8837 10.3256 20.9767 9C20.7209 8.60465 20.3953 8.25581 20.0465 7.95349C19.9767 7.88372 19.9767 7.76744 20.0233 7.69767C20.0465 7.67442 20.0698 7.65116 20.093 7.65116L21.2326 7.13953C21.3023 7.11628 21.3721 7.11628 21.4186 7.18605C21.7209 7.48837 21.9767 7.81395 22.2093 8.13953C23.3023 9.72093 23.907 11.814 23.907 14.0233C23.907 16.2326 23.3256 18.3488 22.2326 19.9302Z" fill="white"/>
</svg>
