<svg width="66" height="13" viewBox="0 0 66 13" fill="none" xmlns="http://www.w3.org/2000/svg">
<path d="M5.93619 10H2.91219C2.22152 10 1.68485 9.80869 1.30219 9.42602C0.928854 9.04335 0.742188 8.51135 0.742188 7.83002V5.03002C0.742188 4.33935 0.928854 3.80735 1.30219 3.43402C1.68485 3.05135 2.22152 2.86002 2.91219 2.86002H4.06019C4.75085 2.86002 5.28752 3.05135 5.67019 3.43402C6.05285 3.80735 6.24419 4.33935 6.24419 5.03002V6.80802C6.24419 6.97602 6.16019 7.06002 5.99219 7.06002H2.24019C2.13752 7.06002 2.08619 7.10669 2.08619 7.20002V7.80202C2.08619 8.48335 2.42685 8.82402 3.10819 8.82402H5.93619C6.10419 8.82402 6.18819 8.90802 6.18819 9.07602V9.77602C6.18819 9.92535 6.10419 10 5.93619 10ZM2.24019 6.10802H4.74619C4.83952 6.10802 4.88619 6.06135 4.88619 5.96802V5.07202C4.88619 4.71735 4.80685 4.46069 4.64819 4.30202C4.48952 4.13402 4.23285 4.05002 3.87819 4.05002H3.10819C2.75352 4.05002 2.49685 4.13402 2.33819 4.30202C2.17952 4.46069 2.10019 4.71735 2.10019 5.07202V5.96802C2.10019 6.06135 2.14685 6.10802 2.24019 6.10802Z" fill="white"/>
<path d="M8.90648 10H8.02448C7.86582 10 7.78648 9.92069 7.78648 9.76202V3.09802C7.78648 2.93935 7.86582 2.86002 8.02448 2.86002H8.90648C9.06515 2.86002 9.14448 2.93935 9.14448 3.09802V3.60202H9.20049C9.42449 3.10735 9.89582 2.86002 10.6145 2.86002H11.2305C11.9118 2.86002 12.4345 3.04669 12.7985 3.42002C13.1625 3.79335 13.3445 4.33002 13.3445 5.03002V9.76202C13.3445 9.92069 13.2605 10 13.0925 10H12.2105C12.0518 10 11.9725 9.92069 11.9725 9.76202V5.08602C11.9725 4.39535 11.6318 4.05002 10.9505 4.05002H10.2925C9.52715 4.05002 9.14448 4.44669 9.14448 5.24002V9.76202C9.14448 9.92069 9.06515 10 8.90648 10Z" fill="white"/>
<path d="M20.0729 10H17.0489C16.3582 10 15.8216 9.80869 15.4389 9.42602C15.0656 9.04335 14.8789 8.51135 14.8789 7.83002V5.03002C14.8789 4.33935 15.0656 3.80735 15.4389 3.43402C15.8216 3.05135 16.3582 2.86002 17.0489 2.86002H18.1969C18.8876 2.86002 19.4242 3.05135 19.8069 3.43402C20.1896 3.80735 20.3809 4.33935 20.3809 5.03002V6.80802C20.3809 6.97602 20.2969 7.06002 20.1289 7.06002H16.3769C16.2742 7.06002 16.2229 7.10669 16.2229 7.20002V7.80202C16.2229 8.48335 16.5636 8.82402 17.2449 8.82402H20.0729C20.2409 8.82402 20.3249 8.90802 20.3249 9.07602V9.77602C20.3249 9.92535 20.2409 10 20.0729 10ZM16.3769 6.10802H18.8829C18.9762 6.10802 19.0229 6.06135 19.0229 5.96802V5.07202C19.0229 4.71735 18.9436 4.46069 18.7849 4.30202C18.6262 4.13402 18.3696 4.05002 18.0149 4.05002H17.2449C16.8902 4.05002 16.6336 4.13402 16.4749 4.30202C16.3162 4.46069 16.2369 4.71735 16.2369 5.07202V5.96802C16.2369 6.06135 16.2836 6.10802 16.3769 6.10802Z" fill="white"/>
<path d="M23.0432 10H22.1612C22.0025 10 21.9232 9.92069 21.9232 9.76202V3.09802C21.9232 2.93935 22.0025 2.86002 22.1612 2.86002H23.0432C23.2019 2.86002 23.2812 2.93935 23.2812 3.09802V3.63002H23.3372C23.4305 3.39669 23.6079 3.21002 23.8692 3.07002C24.1399 2.93002 24.4385 2.86002 24.7652 2.86002H25.2832C25.4419 2.86002 25.5212 2.93935 25.5212 3.09802V3.82602C25.5212 4.00335 25.4419 4.07802 25.2832 4.05002H24.4432C23.6685 4.05002 23.2812 4.47469 23.2812 5.32402V9.76202C23.2812 9.92069 23.2019 10 23.0432 10Z" fill="white"/>
<path d="M29.2167 9.65002H28.5867C27.9147 9.65002 27.3967 9.46335 27.0327 9.09002C26.678 8.70735 26.5007 8.17069 26.5007 7.48002V5.03002C26.5007 4.33935 26.692 3.80735 27.0747 3.43402C27.4573 3.05135 27.9893 2.86002 28.6707 2.86002H31.8067C31.9747 2.86002 32.0587 2.93935 32.0587 3.09802V10.028C32.0587 10.7094 31.8627 11.2367 31.4707 11.61C31.088 11.9927 30.556 12.184 29.8747 12.184H27.2427C27.084 12.184 27.0047 12.1094 27.0047 11.96V11.232C27.0047 11.0734 27.084 10.994 27.2427 10.994H29.6647C30.346 10.994 30.6867 10.6487 30.6867 9.95802V8.89402H30.6307C30.3973 9.39802 29.926 9.65002 29.2167 9.65002ZM30.6867 7.27002V4.19002C30.6867 4.09669 30.6353 4.05002 30.5327 4.05002H28.8667C28.204 4.05002 27.8727 4.39535 27.8727 5.08602V7.41002C27.8727 8.10069 28.204 8.44602 28.8667 8.44602H29.5387C30.304 8.44602 30.6867 8.05402 30.6867 7.27002Z" fill="white"/>
<path d="M34.6441 12.268H33.9021C33.7434 12.268 33.6641 12.1887 33.6641 12.03V11.316C33.6641 11.148 33.7434 11.064 33.9021 11.064H34.2241C34.7934 11.064 35.1854 10.952 35.4001 10.728C35.6241 10.504 35.8107 10.1354 35.9601 9.62202H35.4001C35.2601 9.62202 35.1621 9.54269 35.1061 9.38402L33.2441 3.09802C33.2067 2.93935 33.2674 2.86002 33.4261 2.86002H34.3641C34.5134 2.86002 34.6067 2.93935 34.6441 3.09802L36.1701 8.58602H36.2261L37.7521 3.09802C37.7801 2.93935 37.8734 2.86002 38.0321 2.86002H38.9281C39.1054 2.86002 39.1801 2.94402 39.1521 3.11202L37.2341 9.84602C37.0194 10.63 36.7161 11.2274 36.3241 11.638C35.9321 12.058 35.3721 12.268 34.6441 12.268Z" fill="white"/>
<path d="M46.1812 10H44.9772C44.8372 10 44.7438 9.92069 44.6972 9.76202L43.0872 3.09802C43.0498 2.93935 43.1058 2.86002 43.2552 2.86002H44.2632C44.4312 2.86002 44.5245 2.93935 44.5432 3.09802L45.5652 8.39002H45.6632L46.8952 3.09802C46.9232 2.93935 47.0118 2.86002 47.1612 2.86002H48.0852C48.2438 2.86002 48.3418 2.93935 48.3792 3.09802L49.5832 8.39002H49.6812L50.7032 3.09802C50.7312 2.93935 50.8245 2.86002 50.9832 2.86002H51.9912C52.1498 2.86002 52.2058 2.93935 52.1592 3.09802L50.5492 9.76202C50.5212 9.92069 50.4278 10 50.2692 10H49.0652C48.9158 10 48.8225 9.92069 48.7852 9.76202L47.6652 4.56802H47.5672L46.4612 9.76202C46.4332 9.92069 46.3398 10 46.1812 10Z" fill="white"/>
<path d="M58.4088 10H55.3848C54.6942 10 54.1575 9.80869 53.7748 9.42602C53.4015 9.04335 53.2148 8.51135 53.2148 7.83002V5.03002C53.2148 4.33935 53.4015 3.80735 53.7748 3.43402C54.1575 3.05135 54.6942 2.86002 55.3848 2.86002H56.5328C57.2235 2.86002 57.7602 3.05135 58.1428 3.43402C58.5255 3.80735 58.7168 4.33935 58.7168 5.03002V6.80802C58.7168 6.97602 58.6328 7.06002 58.4648 7.06002H54.7128C54.6102 7.06002 54.5588 7.10669 54.5588 7.20002V7.80202C54.5588 8.48335 54.8995 8.82402 55.5808 8.82402H58.4088C58.5768 8.82402 58.6608 8.90802 58.6608 9.07602V9.77602C58.6608 9.92535 58.5768 10 58.4088 10ZM54.7128 6.10802H57.2188C57.3122 6.10802 57.3588 6.06135 57.3588 5.96802V5.07202C57.3588 4.71735 57.2795 4.46069 57.1208 4.30202C56.9622 4.13402 56.7055 4.05002 56.3508 4.05002H55.5808C55.2262 4.05002 54.9695 4.13402 54.8108 4.30202C54.6522 4.46069 54.5728 4.71735 54.5728 5.07202V5.96802C54.5728 6.06135 54.6195 6.10802 54.7128 6.10802Z" fill="white"/>
<path d="M61.7711 8.81002H63.5071C64.1791 8.81002 64.5151 8.46469 64.5151 7.77402V5.03002C64.5151 4.33935 64.1791 3.99402 63.5071 3.99402H62.7651C61.9998 3.99402 61.6171 4.38602 61.6171 5.17002V8.65602C61.6171 8.75869 61.6685 8.81002 61.7711 8.81002ZM60.2591 9.76202V0.396019C60.2591 0.237353 60.3385 0.15802 60.4971 0.15802H61.3791C61.5378 0.15802 61.6171 0.237353 61.6171 0.396019V3.56002H61.6731C61.9065 3.05602 62.3778 2.80402 63.0871 2.80402H63.7031C64.3938 2.80402 64.9305 2.99535 65.3131 3.37802C65.6958 3.75135 65.8871 4.27869 65.8871 4.96002V7.83002C65.8871 8.51135 65.6958 9.04335 65.3131 9.42602C64.9305 9.80869 64.3938 10 63.7031 10H60.4971C60.3385 10 60.2591 9.92069 60.2591 9.76202Z" fill="white"/>
</svg>
