<svg width="139" height="38" viewBox="0 0 139 38" fill="none" xmlns="http://www.w3.org/2000/svg">
<path d="M46.3918 14H44.6638C44.2692 14 43.9625 13.8906 43.7438 13.672C43.5305 13.4533 43.4238 13.1493 43.4238 12.76V11.16C43.4238 10.7653 43.5305 10.4613 43.7438 10.248C43.9625 10.0293 44.2692 9.91998 44.6638 9.91998H45.3198C45.7145 9.91998 46.0212 10.0293 46.2398 10.248C46.4585 10.4613 46.5678 10.7653 46.5678 11.16V12.176C46.5678 12.272 46.5198 12.32 46.4238 12.32H44.2798C44.2212 12.32 44.1918 12.3466 44.1918 12.4V12.744C44.1918 13.1333 44.3865 13.328 44.7758 13.328H46.3918C46.4878 13.328 46.5358 13.376 46.5358 13.472V13.872C46.5358 13.9573 46.4878 14 46.3918 14ZM44.2798 11.776H45.7118C45.7652 11.776 45.7918 11.7493 45.7918 11.696V11.184C45.7918 10.9813 45.7465 10.8346 45.6558 10.744C45.5652 10.648 45.4185 10.6 45.2158 10.6H44.7758C44.5732 10.6 44.4265 10.648 44.3358 10.744C44.2452 10.8346 44.1998 10.9813 44.1998 11.184V11.696C44.1998 11.7493 44.2265 11.776 44.2798 11.776Z" fill="#A566FF"/>
<path d="M48.0891 14H47.5851C47.4945 14 47.4491 13.9546 47.4491 13.864V10.056C47.4491 9.96531 47.4945 9.91998 47.5851 9.91998H48.0891C48.1798 9.91998 48.2251 9.96531 48.2251 10.056V10.344H48.2571C48.3851 10.0613 48.6545 9.91998 49.0651 9.91998H49.4171C49.8065 9.91998 50.1051 10.0266 50.3131 10.24C50.5211 10.4533 50.6251 10.76 50.6251 11.16V13.864C50.6251 13.9546 50.5771 14 50.4811 14H49.9771C49.8865 14 49.8411 13.9546 49.8411 13.864V11.192C49.8411 10.7973 49.6465 10.6 49.2571 10.6H48.8811C48.4438 10.6 48.2251 10.8266 48.2251 11.28V13.864C48.2251 13.9546 48.1798 14 48.0891 14Z" fill="#A566FF"/>
<path d="M54.47 14H52.742C52.3473 14 52.0406 13.8906 51.822 13.672C51.6086 13.4533 51.502 13.1493 51.502 12.76V11.16C51.502 10.7653 51.6086 10.4613 51.822 10.248C52.0406 10.0293 52.3473 9.91998 52.742 9.91998H53.398C53.7926 9.91998 54.0993 10.0293 54.318 10.248C54.5366 10.4613 54.646 10.7653 54.646 11.16V12.176C54.646 12.272 54.598 12.32 54.502 12.32H52.358C52.2993 12.32 52.27 12.3466 52.27 12.4V12.744C52.27 13.1333 52.4646 13.328 52.854 13.328H54.47C54.566 13.328 54.614 13.376 54.614 13.472V13.872C54.614 13.9573 54.566 14 54.47 14ZM52.358 11.776H53.79C53.8433 11.776 53.87 11.7493 53.87 11.696V11.184C53.87 10.9813 53.8246 10.8346 53.734 10.744C53.6433 10.648 53.4966 10.6 53.294 10.6H52.854C52.6513 10.6 52.5046 10.648 52.414 10.744C52.3233 10.8346 52.278 10.9813 52.278 11.184V11.696C52.278 11.7493 52.3046 11.776 52.358 11.776Z" fill="#A566FF"/>
<path d="M56.1673 14H55.6633C55.5726 14 55.5273 13.9546 55.5273 13.864V10.056C55.5273 9.96531 55.5726 9.91998 55.6633 9.91998H56.1673C56.2579 9.91998 56.3033 9.96531 56.3033 10.056V10.36H56.3353C56.3886 10.2266 56.4899 10.12 56.6393 10.04C56.7939 9.95998 56.9646 9.91998 57.1513 9.91998H57.4473C57.5379 9.91998 57.5833 9.96531 57.5833 10.056V10.472C57.5833 10.5733 57.5379 10.616 57.4473 10.6H56.9673C56.5246 10.6 56.3033 10.8426 56.3033 11.328V13.864C56.3033 13.9546 56.2579 14 56.1673 14Z" fill="#A566FF"/>
<path d="M59.695 13.8H59.335C58.951 13.8 58.655 13.6933 58.447 13.48C58.2443 13.2613 58.143 12.9546 58.143 12.56V11.16C58.143 10.7653 58.2523 10.4613 58.471 10.248C58.6896 10.0293 58.9936 9.91998 59.383 9.91998H61.175C61.271 9.91998 61.319 9.96531 61.319 10.056V14.016C61.319 14.4053 61.207 14.7066 60.983 14.92C60.7643 15.1386 60.4603 15.248 60.071 15.248H58.567C58.4763 15.248 58.431 15.2053 58.431 15.12V14.704C58.431 14.6133 58.4763 14.568 58.567 14.568H59.951C60.3403 14.568 60.535 14.3706 60.535 13.976V13.368H60.503C60.3696 13.656 60.1003 13.8 59.695 13.8ZM60.535 12.44V10.68C60.535 10.6266 60.5056 10.6 60.447 10.6H59.495C59.1163 10.6 58.927 10.7973 58.927 11.192V12.52C58.927 12.9146 59.1163 13.112 59.495 13.112H59.879C60.3163 13.112 60.535 12.888 60.535 12.44Z" fill="#A566FF"/>
<path d="M62.7963 15.296H62.3723C62.2817 15.296 62.2363 15.2506 62.2363 15.16V14.752C62.2363 14.656 62.2817 14.608 62.3723 14.608H62.5563C62.8817 14.608 63.1057 14.544 63.2283 14.416C63.3563 14.288 63.463 14.0773 63.5483 13.784H63.2283C63.1483 13.784 63.0923 13.7386 63.0603 13.648L61.9963 10.056C61.975 9.96531 62.0097 9.91998 62.1003 9.91998H62.6363C62.7217 9.91998 62.775 9.96531 62.7963 10.056L63.6683 13.192H63.7003L64.5723 10.056C64.5883 9.96531 64.6417 9.91998 64.7323 9.91998H65.2443C65.3457 9.91998 65.3883 9.96798 65.3723 10.064L64.2763 13.912C64.1537 14.36 63.9803 14.7013 63.7563 14.936C63.5323 15.176 63.2123 15.296 62.7963 15.296Z" fill="#A566FF"/>
<path d="M69.389 14H68.7009C68.6209 14 68.5676 13.9546 68.5409 13.864L67.6209 10.056C67.5996 9.96531 67.6316 9.91998 67.7169 9.91998H68.2929C68.389 9.91998 68.4423 9.96531 68.4529 10.056L69.0369 13.08H69.0929L69.7969 10.056C69.813 9.96531 69.8636 9.91998 69.9489 9.91998H70.4769C70.5676 9.91998 70.6236 9.96531 70.6449 10.056L71.333 13.08H71.389L71.9729 10.056C71.989 9.96531 72.0423 9.91998 72.1329 9.91998H72.709C72.7996 9.91998 72.8316 9.96531 72.805 10.056L71.8849 13.864C71.8689 13.9546 71.8156 14 71.7249 14H71.0369C70.9516 14 70.8983 13.9546 70.8769 13.864L70.2369 10.896H70.181L69.549 13.864C69.533 13.9546 69.4796 14 69.389 14Z" fill="#A566FF"/>
<path d="M76.3762 14H74.6482C74.2535 14 73.9469 13.8906 73.7282 13.672C73.5149 13.4533 73.4082 13.1493 73.4082 12.76V11.16C73.4082 10.7653 73.5149 10.4613 73.7282 10.248C73.9469 10.0293 74.2535 9.91998 74.6482 9.91998H75.3042C75.6989 9.91998 76.0055 10.0293 76.2242 10.248C76.4429 10.4613 76.5522 10.7653 76.5522 11.16V12.176C76.5522 12.272 76.5042 12.32 76.4082 12.32H74.2642C74.2055 12.32 74.1762 12.3466 74.1762 12.4V12.744C74.1762 13.1333 74.3709 13.328 74.7602 13.328H76.3762C76.4722 13.328 76.5202 13.376 76.5202 13.472V13.872C76.5202 13.9573 76.4722 14 76.3762 14ZM74.2642 11.776H75.6962C75.7495 11.776 75.7762 11.7493 75.7762 11.696V11.184C75.7762 10.9813 75.7309 10.8346 75.6402 10.744C75.5495 10.648 75.4029 10.6 75.2002 10.6H74.7602C74.5575 10.6 74.4109 10.648 74.3202 10.744C74.2295 10.8346 74.1842 10.9813 74.1842 11.184V11.696C74.1842 11.7493 74.2109 11.776 74.2642 11.776Z" fill="#A566FF"/>
<path d="M78.2975 13.32H79.2895C79.6735 13.32 79.8655 13.1226 79.8655 12.728V11.16C79.8655 10.7653 79.6735 10.568 79.2895 10.568H78.8655C78.4282 10.568 78.2095 10.792 78.2095 11.24V13.232C78.2095 13.2906 78.2388 13.32 78.2975 13.32ZM77.4335 13.864V8.51198C77.4335 8.42131 77.4788 8.37598 77.5695 8.37598H78.0735C78.1642 8.37598 78.2095 8.42131 78.2095 8.51198V10.32H78.2415C78.3748 10.032 78.6442 9.88798 79.0495 9.88798H79.4015C79.7962 9.88798 80.1028 9.99731 80.3215 10.216C80.5402 10.4293 80.6495 10.7306 80.6495 11.12V12.76C80.6495 13.1493 80.5402 13.4533 80.3215 13.672C80.1028 13.8906 79.7962 14 79.4015 14H77.5695C77.4788 14 77.4335 13.9546 77.4335 13.864Z" fill="#A566FF"/>
<path d="M47.6768 27H46.0528C45.3621 27 44.8255 26.8087 44.4428 26.426C44.0695 26.0434 43.8828 25.5114 43.8828 24.83V20.168C43.8828 19.4774 44.0695 18.9454 44.4428 18.572C44.8255 18.1894 45.3621 17.998 46.0528 17.998H47.6768C48.3581 17.998 48.8901 18.1894 49.2728 18.572C49.6555 18.9454 49.8468 19.4774 49.8468 20.168V20.84C49.8468 21.008 49.7628 21.092 49.5948 21.092H48.7128C48.5541 21.092 48.4748 21.008 48.4748 20.84V20.224C48.4748 19.5334 48.1388 19.188 47.4668 19.188H46.2488C45.5768 19.188 45.2408 19.5334 45.2408 20.224V24.774C45.2408 25.4647 45.5768 25.81 46.2488 25.81H47.4668C48.1388 25.81 48.4748 25.4647 48.4748 24.774V24.158C48.4748 23.99 48.5541 23.906 48.7128 23.906H49.5948C49.7628 23.906 49.8468 23.99 49.8468 24.158V24.83C49.8468 25.5114 49.6555 26.0434 49.2728 26.426C48.8901 26.8087 48.3581 27 47.6768 27Z" fill="white"/>
<path d="M56.3574 27H51.8214C51.6627 27 51.5834 26.9207 51.5834 26.762V18.236C51.5834 18.0774 51.6627 17.998 51.8214 17.998H52.7034C52.862 17.998 52.9414 18.0774 52.9414 18.236V25.642C52.9414 25.7354 52.9974 25.782 53.1094 25.782H56.3574C56.516 25.782 56.5954 25.866 56.5954 26.034V26.762C56.5954 26.9207 56.516 27 56.3574 27Z" fill="white"/>
<path d="M59.3141 18.236V26.762C59.3141 26.9207 59.2348 27 59.0761 27H58.1941C58.0354 27 57.9561 26.9207 57.9561 26.762V18.236C57.9561 18.0774 58.0354 17.998 58.1941 17.998H59.0761C59.2348 17.998 59.3141 18.0774 59.3141 18.236Z" fill="white"/>
<path d="M66.1451 27H61.6651C61.5064 27 61.4271 26.9207 61.4271 26.762V18.236C61.4271 18.0774 61.5064 17.998 61.6651 17.998H66.1451C66.2944 17.998 66.3691 18.0774 66.3691 18.236V18.95C66.3691 19.1087 66.2944 19.188 66.1451 19.188H62.9531C62.8411 19.188 62.7851 19.2347 62.7851 19.328V21.694C62.7851 21.7874 62.8411 21.834 62.9531 21.834H65.6551C65.8231 21.834 65.9071 21.9134 65.9071 22.072V22.786C65.9071 22.9447 65.8231 23.024 65.6551 23.024H62.9531C62.8411 23.024 62.7851 23.0707 62.7851 23.164V25.656C62.7851 25.7587 62.8411 25.81 62.9531 25.81H66.1451C66.2944 25.81 66.3691 25.8894 66.3691 26.048V26.762C66.3691 26.9207 66.2944 27 66.1451 27Z" fill="white"/>
<path d="M69.2597 27H68.3917C68.233 27 68.1537 26.9207 68.1537 26.762V18.236C68.1537 18.0774 68.233 17.998 68.3917 17.998H69.1757C69.325 17.998 69.4277 18.0494 69.4837 18.152L72.8717 24.242H72.9277V18.236C72.9277 18.0774 73.007 17.998 73.1657 17.998H74.0337C74.1923 17.998 74.2717 18.0774 74.2717 18.236V26.762C74.2717 26.9207 74.1923 27 74.0337 27H73.2777C73.1283 27 73.007 26.9254 72.9137 26.776L69.5537 20.756H69.4977V26.762C69.4977 26.9207 69.4183 27 69.2597 27Z" fill="white"/>
<path d="M78.7798 27H77.8978C77.7298 27 77.6458 26.9207 77.6458 26.762V19.328C77.6458 19.2347 77.5991 19.188 77.5058 19.188H75.7418C75.5738 19.188 75.4898 19.1087 75.4898 18.95V18.236C75.4898 18.0774 75.5738 17.998 75.7418 17.998H80.9358C81.1038 17.998 81.1878 18.0774 81.1878 18.236V18.95C81.1878 19.1087 81.1038 19.188 80.9358 19.188H79.1718C79.0691 19.188 79.0178 19.2347 79.0178 19.328V26.762C79.0178 26.9207 78.9384 27 78.7798 27Z" fill="white"/>
<path d="M89.25 27H87.752C87.0614 27 86.5247 26.8087 86.142 26.426C85.7687 26.0434 85.582 25.5114 85.582 24.83V20.168C85.582 19.4774 85.7687 18.9454 86.142 18.572C86.5247 18.1894 87.0614 17.998 87.752 17.998H89.25C89.9407 17.998 90.4727 18.1894 90.846 18.572C91.2287 18.9454 91.42 19.4774 91.42 20.168V20.672C91.42 20.84 91.3407 20.924 91.182 20.924H90.3C90.1414 20.924 90.062 20.84 90.062 20.672V20.224C90.062 19.5334 89.726 19.188 89.054 19.188H87.948C87.276 19.188 86.94 19.5334 86.94 20.224V24.774C86.94 25.4647 87.276 25.81 87.948 25.81H89.054C89.726 25.81 90.062 25.4647 90.062 24.774V23.514C90.062 23.4207 90.0107 23.374 89.908 23.374H88.774C88.6154 23.374 88.536 23.2947 88.536 23.136V22.422C88.536 22.2634 88.6154 22.184 88.774 22.184H91.126C91.322 22.184 91.42 22.282 91.42 22.478V24.83C91.42 25.5114 91.2287 26.0434 90.846 26.426C90.4634 26.8087 89.9314 27 89.25 27Z" fill="white"/>
<path d="M93.8136 27H92.8056C92.6749 27 92.6283 26.9207 92.6656 26.762L95.1016 18.236C95.1483 18.0774 95.2603 17.998 95.4376 17.998H96.8376C97.0243 17.998 97.1363 18.0774 97.1736 18.236L99.6096 26.762C99.6469 26.9207 99.5956 27 99.4556 27H98.4616C98.3776 27 98.3169 26.986 98.2796 26.958C98.2516 26.9207 98.2283 26.8554 98.2096 26.762L97.6776 24.942H94.5976L94.0656 26.762C94.0283 26.9207 93.9443 27 93.8136 27ZM96.1096 19.342L94.8776 23.822H97.4116L96.1656 19.342H96.1096Z" fill="white"/>
<path d="M103.458 27H102.576C102.408 27 102.324 26.9207 102.324 26.762V19.328C102.324 19.2347 102.277 19.188 102.184 19.188H100.42C100.252 19.188 100.168 19.1087 100.168 18.95V18.236C100.168 18.0774 100.252 17.998 100.42 17.998H105.614C105.782 17.998 105.866 18.0774 105.866 18.236V18.95C105.866 19.1087 105.782 19.188 105.614 19.188H103.85C103.747 19.188 103.696 19.2347 103.696 19.328V26.762C103.696 26.9207 103.616 27 103.458 27Z" fill="white"/>
<path d="M111.782 27H107.302C107.143 27 107.064 26.9207 107.064 26.762V18.236C107.064 18.0774 107.143 17.998 107.302 17.998H111.782C111.931 17.998 112.006 18.0774 112.006 18.236V18.95C112.006 19.1087 111.931 19.188 111.782 19.188H108.59C108.478 19.188 108.422 19.2347 108.422 19.328V21.694C108.422 21.7874 108.478 21.834 108.59 21.834H111.292C111.46 21.834 111.544 21.9134 111.544 22.072V22.786C111.544 22.9447 111.46 23.024 111.292 23.024H108.59C108.478 23.024 108.422 23.0707 108.422 23.164V25.656C108.422 25.7587 108.478 25.81 108.59 25.81H111.782C111.931 25.81 112.006 25.8894 112.006 26.048V26.762C112.006 26.9207 111.931 27 111.782 27Z" fill="white"/>
<path d="M116.506 27H115.022C114.854 27 114.756 26.9207 114.728 26.762L113.062 18.236C113.044 18.0774 113.123 17.998 113.3 17.998H114.378C114.556 17.998 114.649 18.0774 114.658 18.236L115.792 25.572H115.876L117.528 18.208C117.547 18.068 117.631 17.998 117.78 17.998H118.956C119.106 17.998 119.194 18.068 119.222 18.208L120.888 25.572H120.972L122.106 18.25C122.116 18.082 122.209 17.998 122.386 17.998H123.464C123.651 17.998 123.73 18.082 123.702 18.25L122.036 26.762C122.008 26.9207 121.915 27 121.756 27H120.272C120.114 27 120.02 26.9207 119.992 26.762L118.41 19.678H118.354L116.772 26.762C116.744 26.9207 116.656 27 116.506 27Z" fill="white"/>
<path d="M125.505 27H124.497C124.366 27 124.32 26.9207 124.357 26.762L126.793 18.236C126.84 18.0774 126.952 17.998 127.129 17.998H128.529C128.716 17.998 128.828 18.0774 128.865 18.236L131.301 26.762C131.338 26.9207 131.287 27 131.147 27H130.153C130.069 27 130.008 26.986 129.971 26.958C129.943 26.9207 129.92 26.8554 129.901 26.762L129.369 24.942H126.289L125.757 26.762C125.72 26.9207 125.636 27 125.505 27ZM127.801 19.342L126.569 23.822H129.103L127.857 19.342H127.801Z" fill="white"/>
<path d="M135.667 27H134.771C134.612 27 134.533 26.9207 134.533 26.762V23.668L131.915 18.25C131.878 18.1754 131.878 18.1147 131.915 18.068C131.952 18.0214 132.004 17.998 132.069 17.998H133.189C133.31 17.998 133.404 18.0774 133.469 18.236L135.191 22.086H135.275L136.969 18.236C137.025 18.0774 137.118 17.998 137.249 17.998H138.369C138.444 17.998 138.495 18.0214 138.523 18.068C138.56 18.1147 138.56 18.1754 138.523 18.25L135.905 23.668V26.762C135.905 26.9207 135.826 27 135.667 27Z" fill="white"/>
<rect width="38" height="38" rx="5" fill="#A566FF"/>
<path d="M17.6193 27.8513C16.5686 28.5768 15.3016 29 14.0346 29C11.8096 29 9.77009 27.821 8.22497 25.6445C6.83436 23.5586 6.0618 21.1402 6 18.6614C6 18.5707 6.0618 18.48 6.15451 18.4498L7.66873 17.7847C7.79234 17.7243 7.91594 17.7847 7.97775 17.9057C7.97775 17.9359 8.00865 17.9661 8.00865 17.9963C8.00865 20.4752 8.6885 22.8029 9.89369 24.526C11.0371 26.1584 12.5204 27.0351 14.0655 27.0351C14.8999 27.0351 15.7342 26.7932 16.4141 26.3398C16.5068 26.2793 16.6613 26.3095 16.7231 26.4002C17.0321 26.7932 17.3412 27.156 17.6811 27.5187C17.712 27.6094 17.712 27.7606 17.6193 27.8513ZM28.775 25.6445C27.2608 27.7908 25.1904 29 22.9654 29C20.7404 29 18.7009 27.7908 17.1557 25.6445C15.7033 23.5889 14.8999 20.8682 14.8999 17.9963C14.8999 15.3361 16.4759 13.2503 18.4536 13.2503C20.4314 13.2503 22.0074 15.3361 22.0074 17.9963C22.0383 20.324 21.4821 22.5913 20.3696 24.6469C20.3078 24.7678 20.1533 24.7981 20.0606 24.7376C20.0297 24.7376 20.0297 24.7074 19.9988 24.6771C19.8133 24.4655 19.6279 24.2539 19.4734 24.0423C19.288 23.7702 19.1335 23.5284 18.979 23.2261C18.9481 23.1656 18.9481 23.075 18.979 23.0145C19.6897 21.4123 20.0297 19.6892 20.0297 17.9661C20.0297 16.6662 19.3498 15.185 18.4536 15.185C17.5575 15.185 16.8776 16.6662 16.8776 17.9661C16.8776 20.445 17.5575 22.7727 18.7627 24.4958C19.9061 26.1282 21.3894 27.0048 22.9345 27.0048C24.4796 27.0048 25.9629 26.0979 27.1063 24.4958C28.3115 22.7727 28.9913 20.445 28.9913 17.9661C28.9913 15.4873 28.3115 13.1596 27.1063 11.4365C26.7664 10.9226 26.3337 10.4691 25.8702 10.0761C25.7775 9.98543 25.7775 9.83428 25.8393 9.74359C25.8702 9.71337 25.9011 9.68314 25.932 9.68314L27.4462 9.01808C27.5389 8.98785 27.6316 8.98785 27.6934 9.07854C28.0952 9.47153 28.4351 9.89475 28.7441 10.318C30.1965 12.3736 31 15.0943 31 17.9661C31 20.8379 30.2274 23.5889 28.775 25.6445Z" fill="#293145"/>
</svg>
