<svg width="168" height="27" viewBox="0 0 168 27" fill="none" xmlns="http://www.w3.org/2000/svg">
<path d="M2.142 18H1.26C1.10133 18 1.022 17.9207 1.022 17.762V9.236C1.022 9.07733 1.10133 8.998 1.26 8.998H4.592C5.27333 8.998 5.80533 9.18933 6.188 9.572C6.57067 9.94533 6.762 10.4773 6.762 11.168V12.624C6.762 13.3053 6.57067 13.8373 6.188 14.22C5.80533 14.6027 5.27333 14.794 4.592 14.794H2.548C2.436 14.794 2.38 14.8407 2.38 14.934V17.762C2.38 17.9207 2.30067 18 2.142 18ZM2.534 13.59H4.396C5.05867 13.59 5.39 13.2447 5.39 12.554V11.224C5.39 10.5333 5.05867 10.188 4.396 10.188H2.534C2.43133 10.188 2.38 10.2347 2.38 10.328V13.45C2.38 13.5433 2.43133 13.59 2.534 13.59ZM11.5405 18H10.3085C9.61782 18 9.08115 17.8087 8.69848 17.426C8.32515 17.0433 8.13848 16.5113 8.13848 15.83V13.03C8.13848 12.3393 8.32515 11.8073 8.69848 11.434C9.08115 11.0513 9.61782 10.86 10.3085 10.86H11.5405C12.2218 10.86 12.7538 11.0513 13.1365 11.434C13.5285 11.8073 13.7245 12.3393 13.7245 13.03V15.83C13.7245 16.5113 13.5285 17.0433 13.1365 17.426C12.7538 17.8087 12.2218 18 11.5405 18ZM10.5045 16.81H11.3585C12.0305 16.81 12.3665 16.4693 12.3665 15.788V13.072C12.3665 12.3907 12.0305 12.05 11.3585 12.05H10.5045C10.1498 12.05 9.89315 12.134 9.73448 12.302C9.57582 12.4607 9.49648 12.7173 9.49648 13.072V15.788C9.49648 16.1427 9.57582 16.404 9.73448 16.572C9.89315 16.7307 10.1498 16.81 10.5045 16.81ZM17.8392 18H16.6352C16.4952 18 16.4018 17.9207 16.3552 17.762L14.7452 11.098C14.7078 10.9393 14.7638 10.86 14.9132 10.86H15.9212C16.0892 10.86 16.1825 10.9393 16.2012 11.098L17.2232 16.39H17.3212L18.5532 11.098C18.5812 10.9393 18.6698 10.86 18.8192 10.86H19.7432C19.9018 10.86 19.9998 10.9393 20.0372 11.098L21.2412 16.39H21.3392L22.3612 11.098C22.3892 10.9393 22.4825 10.86 22.6412 10.86H23.6492C23.8078 10.86 23.8638 10.9393 23.8172 11.098L22.2072 17.762C22.1792 17.9207 22.0858 18 21.9272 18H20.7232C20.5738 18 20.4805 17.9207 20.4432 17.762L19.3232 12.568H19.2252L18.1192 17.762C18.0912 17.9207 17.9978 18 17.8392 18ZM30.0669 18H27.0429C26.3522 18 25.8155 17.8087 25.4329 17.426C25.0595 17.0433 24.8729 16.5113 24.8729 15.83V13.03C24.8729 12.3393 25.0595 11.8073 25.4329 11.434C25.8155 11.0513 26.3522 10.86 27.0429 10.86H28.1909C28.8815 10.86 29.4182 11.0513 29.8009 11.434C30.1835 11.8073 30.3749 12.3393 30.3749 13.03V14.808C30.3749 14.976 30.2909 15.06 30.1229 15.06H26.3709C26.2682 15.06 26.2169 15.1067 26.2169 15.2V15.802C26.2169 16.4833 26.5575 16.824 27.2389 16.824H30.0669C30.2349 16.824 30.3189 16.908 30.3189 17.076V17.776C30.3189 17.9253 30.2349 18 30.0669 18ZM26.3709 14.108H28.8769C28.9702 14.108 29.0169 14.0613 29.0169 13.968V13.072C29.0169 12.7173 28.9375 12.4607 28.7789 12.302C28.6202 12.134 28.3635 12.05 28.0089 12.05H27.2389C26.8842 12.05 26.6275 12.134 26.4689 12.302C26.3102 12.4607 26.2309 12.7173 26.2309 13.072V13.968C26.2309 14.0613 26.2775 14.108 26.3709 14.108ZM33.0372 18H32.1552C31.9965 18 31.9172 17.9207 31.9172 17.762V11.098C31.9172 10.9393 31.9965 10.86 32.1552 10.86H33.0372C33.1958 10.86 33.2752 10.9393 33.2752 11.098V11.63H33.3312C33.4245 11.3967 33.6018 11.21 33.8632 11.07C34.1338 10.93 34.4325 10.86 34.7592 10.86H35.2772C35.4358 10.86 35.5152 10.9393 35.5152 11.098V11.826C35.5152 12.0033 35.4358 12.078 35.2772 12.05H34.4372C33.6625 12.05 33.2752 12.4747 33.2752 13.324V17.762C33.2752 17.9207 33.1958 18 33.0372 18ZM41.6606 18H38.6366C37.9459 18 37.4093 17.8087 37.0266 17.426C36.6533 17.0433 36.4666 16.5113 36.4666 15.83V13.03C36.4666 12.3393 36.6533 11.8073 37.0266 11.434C37.4093 11.0513 37.9459 10.86 38.6366 10.86H39.7846C40.4753 10.86 41.0119 11.0513 41.3946 11.434C41.7773 11.8073 41.9686 12.3393 41.9686 13.03V14.808C41.9686 14.976 41.8846 15.06 41.7166 15.06H37.9646C37.8619 15.06 37.8106 15.1067 37.8106 15.2V15.802C37.8106 16.4833 38.1513 16.824 38.8326 16.824H41.6606C41.8286 16.824 41.9126 16.908 41.9126 17.076V17.776C41.9126 17.9253 41.8286 18 41.6606 18ZM37.9646 14.108H40.4706C40.5639 14.108 40.6106 14.0613 40.6106 13.968V13.072C40.6106 12.7173 40.5313 12.4607 40.3726 12.302C40.2139 12.134 39.9573 12.05 39.6026 12.05H38.8326C38.4779 12.05 38.2213 12.134 38.0626 12.302C37.9039 12.4607 37.8246 12.7173 37.8246 13.072V13.968C37.8246 14.0613 37.8713 14.108 37.9646 14.108ZM46.1709 18H45.4569C44.7849 18 44.2669 17.8133 43.9029 17.44C43.5482 17.0573 43.3709 16.5207 43.3709 15.83V13.03C43.3709 12.33 43.5482 11.7933 43.9029 11.42C44.2669 11.0467 44.7849 10.86 45.4569 10.86H46.1709C46.8896 10.86 47.3562 11.1073 47.5709 11.602H47.6269V8.396C47.6269 8.23733 47.7062 8.158 47.8649 8.158H48.7609C48.9196 8.158 48.9989 8.23733 48.9989 8.396V17.762C48.9989 17.9207 48.9196 18 48.7609 18H47.8649C47.7062 18 47.6269 17.9207 47.6269 17.762V17.258H47.5709C47.3562 17.7527 46.8896 18 46.1709 18ZM47.6269 15.62V13.24C47.6269 12.4467 47.2442 12.05 46.4789 12.05H45.7369C45.0649 12.05 44.7289 12.3953 44.7289 13.086V15.774C44.7289 16.4647 45.0649 16.81 45.7369 16.81H46.4789C47.2442 16.81 47.6269 16.4133 47.6269 15.62ZM55.7449 16.838H57.7049C58.4049 16.838 58.7549 16.502 58.7549 15.83V14.962C58.7549 14.29 58.3863 13.954 57.6489 13.954H55.7449C55.6423 13.954 55.5909 14.0007 55.5909 14.094V16.698C55.5909 16.7913 55.6423 16.838 55.7449 16.838ZM55.7449 12.834H57.5649C58.2743 12.834 58.6289 12.4933 58.6289 11.812V11.168C58.6289 10.496 58.2836 10.16 57.5929 10.16H55.7449C55.6423 10.16 55.5909 10.2067 55.5909 10.3V12.694C55.5909 12.7873 55.6423 12.834 55.7449 12.834ZM54.2329 17.762V9.236C54.2329 9.07733 54.3123 8.998 54.4709 8.998H57.7889C58.4796 8.998 59.0163 9.18467 59.3989 9.558C59.7816 9.93133 59.9729 10.4587 59.9729 11.14V11.826C59.9729 12.638 59.5903 13.1607 58.8249 13.394C59.1889 13.4407 59.4876 13.5993 59.7209 13.87C59.9636 14.1407 60.0849 14.5047 60.0849 14.962V15.858C60.0849 16.5393 59.8936 17.0667 59.5109 17.44C59.1283 17.8133 58.5963 18 57.9149 18H54.4709C54.3123 18 54.2329 17.9207 54.2329 17.762ZM62.6575 20.268H61.9155C61.7569 20.268 61.6775 20.1887 61.6775 20.03V19.316C61.6775 19.148 61.7569 19.064 61.9155 19.064H62.2375C62.8069 19.064 63.1989 18.952 63.4135 18.728C63.6375 18.504 63.8242 18.1353 63.9735 17.622H63.4135C63.2735 17.622 63.1755 17.5427 63.1195 17.384L61.2575 11.098C61.2202 10.9393 61.2809 10.86 61.4395 10.86H62.3775C62.5269 10.86 62.6202 10.9393 62.6575 11.098L64.1835 16.586H64.2395L65.7655 11.098C65.7935 10.9393 65.8869 10.86 66.0455 10.86H66.9415C67.1189 10.86 67.1935 10.944 67.1655 11.112L65.2475 17.846C65.0329 18.63 64.7295 19.2273 64.3375 19.638C63.9455 20.058 63.3855 20.268 62.6575 20.268ZM106.752 18H103.728C103.038 18 102.501 17.8087 102.118 17.426C101.745 17.0433 101.558 16.5113 101.558 15.83V13.03C101.558 12.3393 101.745 11.8073 102.118 11.434C102.501 11.0513 103.038 10.86 103.728 10.86H104.876C105.567 10.86 106.104 11.0513 106.486 11.434C106.869 11.8073 107.06 12.3393 107.06 13.03V14.808C107.06 14.976 106.976 15.06 106.808 15.06H103.056C102.954 15.06 102.902 15.1067 102.902 15.2V15.802C102.902 16.4833 103.243 16.824 103.924 16.824H106.752C106.92 16.824 107.004 16.908 107.004 17.076V17.776C107.004 17.9253 106.92 18 106.752 18ZM103.056 14.108H105.562C105.656 14.108 105.702 14.0613 105.702 13.968V13.072C105.702 12.7173 105.623 12.4607 105.464 12.302C105.306 12.134 105.049 12.05 104.694 12.05H103.924C103.57 12.05 103.313 12.134 103.154 12.302C102.996 12.4607 102.916 12.7173 102.916 13.072V13.968C102.916 14.0613 102.963 14.108 103.056 14.108ZM109.723 18H108.841C108.682 18 108.603 17.9207 108.603 17.762V11.098C108.603 10.9393 108.682 10.86 108.841 10.86H109.723C109.881 10.86 109.961 10.9393 109.961 11.098V11.602H110.017C110.241 11.1073 110.712 10.86 111.431 10.86H112.047C112.728 10.86 113.251 11.0467 113.615 11.42C113.979 11.7933 114.161 12.33 114.161 13.03V17.762C114.161 17.9207 114.077 18 113.909 18H113.027C112.868 18 112.789 17.9207 112.789 17.762V13.086C112.789 12.3953 112.448 12.05 111.767 12.05H111.109C110.343 12.05 109.961 12.4467 109.961 13.24V17.762C109.961 17.9207 109.881 18 109.723 18ZM120.889 18H117.865C117.174 18 116.638 17.8087 116.255 17.426C115.882 17.0433 115.695 16.5113 115.695 15.83V13.03C115.695 12.3393 115.882 11.8073 116.255 11.434C116.638 11.0513 117.174 10.86 117.865 10.86H119.013C119.704 10.86 120.24 11.0513 120.623 11.434C121.006 11.8073 121.197 12.3393 121.197 13.03V14.808C121.197 14.976 121.113 15.06 120.945 15.06H117.193C117.09 15.06 117.039 15.1067 117.039 15.2V15.802C117.039 16.4833 117.38 16.824 118.061 16.824H120.889C121.057 16.824 121.141 16.908 121.141 17.076V17.776C121.141 17.9253 121.057 18 120.889 18ZM117.193 14.108H119.699C119.792 14.108 119.839 14.0613 119.839 13.968V13.072C119.839 12.7173 119.76 12.4607 119.601 12.302C119.442 12.134 119.186 12.05 118.831 12.05H118.061C117.706 12.05 117.45 12.134 117.291 12.302C117.132 12.4607 117.053 12.7173 117.053 13.072V13.968C117.053 14.0613 117.1 14.108 117.193 14.108ZM123.859 18H122.977C122.819 18 122.739 17.9207 122.739 17.762V11.098C122.739 10.9393 122.819 10.86 122.977 10.86H123.859C124.018 10.86 124.097 10.9393 124.097 11.098V11.63H124.153C124.247 11.3967 124.424 11.21 124.685 11.07C124.956 10.93 125.255 10.86 125.581 10.86H126.099C126.258 10.86 126.337 10.9393 126.337 11.098V11.826C126.337 12.0033 126.258 12.078 126.099 12.05H125.259C124.485 12.05 124.097 12.4747 124.097 13.324V17.762C124.097 17.9207 124.018 18 123.859 18ZM130.033 17.65H129.403C128.731 17.65 128.213 17.4633 127.849 17.09C127.494 16.7073 127.317 16.1707 127.317 15.48V13.03C127.317 12.3393 127.508 11.8073 127.891 11.434C128.274 11.0513 128.806 10.86 129.487 10.86H132.623C132.791 10.86 132.875 10.9393 132.875 11.098V18.028C132.875 18.7093 132.679 19.2367 132.287 19.61C131.904 19.9927 131.372 20.184 130.691 20.184H128.059C127.9 20.184 127.821 20.1093 127.821 19.96V19.232C127.821 19.0733 127.9 18.994 128.059 18.994H130.481C131.162 18.994 131.503 18.6487 131.503 17.958V16.894H131.447C131.214 17.398 130.742 17.65 130.033 17.65ZM131.503 15.27V12.19C131.503 12.0967 131.452 12.05 131.349 12.05H129.683C129.02 12.05 128.689 12.3953 128.689 13.086V15.41C128.689 16.1007 129.02 16.446 129.683 16.446H130.355C131.12 16.446 131.503 16.054 131.503 15.27ZM135.46 20.268H134.718C134.56 20.268 134.48 20.1887 134.48 20.03V19.316C134.48 19.148 134.56 19.064 134.718 19.064H135.04C135.61 19.064 136.002 18.952 136.216 18.728C136.44 18.504 136.627 18.1353 136.776 17.622H136.216C136.076 17.622 135.978 17.5427 135.922 17.384L134.06 11.098C134.023 10.9393 134.084 10.86 134.242 10.86H135.18C135.33 10.86 135.423 10.9393 135.46 11.098L136.986 16.586H137.042L138.568 11.098C138.596 10.9393 138.69 10.86 138.848 10.86H139.744C139.922 10.86 139.996 10.944 139.968 11.112L138.05 17.846C137.836 18.63 137.532 19.2273 137.14 19.638C136.748 20.058 136.188 20.268 135.46 20.268ZM146.997 18H145.793C145.653 18 145.56 17.9207 145.513 17.762L143.903 11.098C143.866 10.9393 143.922 10.86 144.071 10.86H145.079C145.247 10.86 145.341 10.9393 145.359 11.098L146.381 16.39H146.479L147.711 11.098C147.739 10.9393 147.828 10.86 147.977 10.86H148.901C149.06 10.86 149.158 10.9393 149.195 11.098L150.399 16.39H150.497L151.519 11.098C151.547 10.9393 151.641 10.86 151.799 10.86H152.807C152.966 10.86 153.022 10.9393 152.975 11.098L151.365 17.762C151.337 17.9207 151.244 18 151.085 18H149.881C149.732 18 149.639 17.9207 149.601 17.762L148.481 12.568H148.383L147.277 17.762C147.249 17.9207 147.156 18 146.997 18ZM159.225 18H156.201C155.51 18 154.974 17.8087 154.591 17.426C154.218 17.0433 154.031 16.5113 154.031 15.83V13.03C154.031 12.3393 154.218 11.8073 154.591 11.434C154.974 11.0513 155.51 10.86 156.201 10.86H157.349C158.04 10.86 158.576 11.0513 158.959 11.434C159.342 11.8073 159.533 12.3393 159.533 13.03V14.808C159.533 14.976 159.449 15.06 159.281 15.06H155.529C155.426 15.06 155.375 15.1067 155.375 15.2V15.802C155.375 16.4833 155.716 16.824 156.397 16.824H159.225C159.393 16.824 159.477 16.908 159.477 17.076V17.776C159.477 17.9253 159.393 18 159.225 18ZM155.529 14.108H158.035C158.128 14.108 158.175 14.0613 158.175 13.968V13.072C158.175 12.7173 158.096 12.4607 157.937 12.302C157.778 12.134 157.522 12.05 157.167 12.05H156.397C156.042 12.05 155.786 12.134 155.627 12.302C155.468 12.4607 155.389 12.7173 155.389 13.072V13.968C155.389 14.0613 155.436 14.108 155.529 14.108ZM162.587 16.81H164.323C164.995 16.81 165.331 16.4647 165.331 15.774V13.03C165.331 12.3393 164.995 11.994 164.323 11.994H163.581C162.816 11.994 162.433 12.386 162.433 13.17V16.656C162.433 16.7587 162.485 16.81 162.587 16.81ZM161.075 17.762V8.396C161.075 8.23733 161.155 8.158 161.313 8.158H162.195C162.354 8.158 162.433 8.23733 162.433 8.396V11.56H162.489C162.723 11.056 163.194 10.804 163.903 10.804H164.519C165.21 10.804 165.747 10.9953 166.129 11.378C166.512 11.7513 166.703 12.2787 166.703 12.96V15.83C166.703 16.5113 166.512 17.0433 166.129 17.426C165.747 17.8087 165.21 18 164.519 18H161.313C161.155 18 161.075 17.9207 161.075 17.762Z" fill="white"/>
<g clip-path="url(#clip0_830_2500)">
<path d="M84.5 0C81.83 0 79.22 0.791845 76.9998 2.2752C74.7797 3.75856 73.0494 5.86696 72.0277 8.33385C71.0058 10.8005 70.7385 13.515 71.2595 16.1338C71.7803 18.7526 73.0661 21.158 74.954 23.0459C76.842 24.9341 79.2475 26.2198 81.8661 26.7406C84.4849 27.2615 87.1992 26.9941 89.6661 25.9725C92.1328 24.9506 94.2412 23.2203 95.7245 21.0003C97.2079 18.7802 97.9997 16.1701 97.9997 13.5001C97.9987 9.91999 96.5761 6.48669 94.0446 3.95535C91.513 1.42381 88.0799 0.00122376 84.4998 0.000204125L84.5 0Z" fill="white"/>
<path d="M84.0123 19.9525C84.0083 19.996 83.9832 20.0549 83.909 20.1035C83.1684 20.5895 82.3195 20.8863 81.4329 20.8951C79.873 20.8927 78.4455 20.046 77.3644 18.4843C76.392 16.9914 75.8541 15.2968 75.8103 13.5156C75.8103 13.4438 75.8195 13.4204 75.832 13.3971C75.848 13.3676 75.8821 13.3415 75.9213 13.3229L76.9537 12.8628C76.9791 12.8514 77.0064 12.844 77.0345 12.8438C77.0712 12.8435 77.1023 12.8532 77.1349 12.8709C77.1768 12.8937 77.2221 12.9571 77.2223 13.0005C77.2256 14.771 77.6931 16.4469 78.5377 17.684C79.3363 18.8555 80.3763 19.4858 81.4599 19.4875C81.9846 19.4895 82.4977 19.3503 82.9493 19.0878C83.0018 19.0572 83.0548 19.0259 83.1058 18.9921C83.1235 18.9803 83.1739 18.9705 83.215 18.974C83.2562 18.9775 83.2978 19.0046 83.3234 19.0355C83.5316 19.3076 83.7422 19.5589 83.9685 19.8098C84.0075 19.8529 84.0147 19.9258 84.0123 19.9525Z" fill="black"/>
<path d="M91.7736 18.5066C90.7088 20.0436 89.2555 20.9071 87.6973 20.9047C86.1392 20.9023 84.7082 20.0344 83.6286 18.4939C82.6128 17.0192 82.0527 15.0672 82.0559 13.0025C82.059 11.0973 83.166 9.60287 84.5525 9.60506C85.9389 9.60725 87.0433 11.1052 87.0402 13.0104C87.0621 14.6712 86.6643 16.3108 85.8837 17.7768C85.8743 17.7958 85.8283 17.8543 85.7677 17.8598C85.7134 17.8646 85.6635 17.8405 85.6405 17.8162C85.6361 17.8116 85.6311 17.8059 85.6234 17.7978C85.4945 17.6454 85.3636 17.4946 85.2559 17.3423C85.1263 17.1547 85.0166 16.9754 84.9109 16.7733C84.8798 16.716 84.8857 16.6774 84.9271 16.5787C85.3139 15.6547 85.6495 14.2316 85.6469 12.9871C85.6449 12.0557 85.1718 10.9927 84.5434 10.9916C83.9149 10.9907 83.4368 12.0522 83.4355 12.9836C83.4326 14.7544 83.9063 16.4301 84.7509 17.6671C85.5512 18.837 86.5895 19.4672 87.673 19.4689C88.7566 19.4707 89.7988 18.8225 90.6009 17.6763C91.4474 16.4382 91.9281 14.7745 91.931 12.9968C91.9336 11.2191 91.4616 9.55931 90.6156 8.31856C90.4085 8.00574 90.1618 7.72204 89.8862 7.46811C89.8406 7.42608 89.7966 7.38186 89.7494 7.34158C89.7207 7.30962 89.7032 7.26934 89.6992 7.22644C89.6955 7.18375 89.7056 7.13756 89.7375 7.10254C89.7651 7.07036 89.7966 7.0581 89.7975 7.05723L90.8572 6.58527C90.8951 6.56666 90.9247 6.56578 90.9573 6.57366C90.9899 6.58154 91.0074 6.60212 91.0341 6.62795C91.3038 6.90246 91.5503 7.19908 91.7712 7.5143C92.7871 8.98906 93.3471 10.941 93.3438 13.0058C93.3407 15.0702 92.7939 17.0349 91.7736 18.5064V18.5066Z" fill="black"/>
</g>
<defs>
<clipPath id="clip0_830_2500">
<rect width="27" height="27" fill="white" transform="translate(71)"/>
</clipPath>
</defs>
</svg>
